# Blender v2.72 (sub 0) OBJ File: 'lamp_joined.blend'
# www.blender.org
mtllib base_to_neck_sides.mtl
o base_to_neck_sides_Luxo_by_RaccoonAnimator.022
v -0.036976 0.617160 -0.006777
v 0.066957 0.552487 -0.012425
v 0.065382 0.552487 -0.041408
v -0.038551 0.617160 -0.035760
v -0.078770 0.573682 -0.004505
v -0.080345 0.573682 -0.033489
v 0.208655 0.309862 -0.020126
v 0.207080 0.309862 -0.049109
v 0.298447 0.386824 -0.025006
v 0.296872 0.386824 -0.053989
v 0.064720 0.752711 -0.012304
v 0.063144 0.752711 -0.041287
v 0.000074 0.706060 -0.008790
v -0.001501 0.706060 -0.037774
v -0.030676 0.617160 0.109148
v 0.073257 0.552487 0.103500
v 0.071682 0.552487 0.074519
v -0.032251 0.617160 0.080167
v -0.072469 0.573682 0.111420
v -0.074045 0.573682 0.082438
v 0.214955 0.309862 0.095799
v 0.213380 0.309862 0.066818
v 0.304747 0.386824 0.090919
v 0.303172 0.386824 0.061938
v 0.071020 0.752711 0.103621
v 0.069445 0.752711 0.074640
v 0.006374 0.706060 0.107135
v 0.004799 0.706060 0.078153
vn -0.068000 0.801700 0.593800
vn -0.052400 0.122700 0.991100
vn -0.159500 0.122700 -0.979500
vn -0.131900 0.801700 -0.582900
vn -0.784500 -0.025500 0.619600
vn -0.847000 -0.025500 -0.530900
vn 0.017900 -0.811600 0.583800
vn -0.045400 -0.811600 -0.582400
vn 0.832900 -0.118700 0.540600
vn 0.769300 -0.118700 -0.627700
vn 0.184400 0.804000 0.565300
vn 0.122100 0.804000 -0.582000
vn -0.746000 0.213600 0.630800
vn -0.809900 0.213600 -0.546200
usemtl wire_087225198
s 1
f 1//1 2//2 3//3 4//4
f 5//5 1//1 4//4 6//6
f 7//7 5//5 6//6 8//8
f 9//9 7//7 8//8 10//10
f 11//11 9//9 10//10 12//12
f 13//13 11//11 12//12 14//14
f 2//2 13//13 14//14 3//3
f 6//6 4//4 3//3 8//8
f 10//10 8//8 3//3 14//14
f 10//10 14//14 12//12
f 9//9 11//11 13//13 2//2
f 2//2 1//1 5//5 7//7
f 9//9 2//2 7//7
s 2
f 15//1 16//2 17//3 18//4
f 19//5 15//1 18//4 20//6
f 21//7 19//5 20//6 22//8
f 23//9 21//7 22//8 24//10
f 25//11 23//9 24//10 26//12
f 27//13 25//11 26//12 28//14
f 16//2 27//13 28//14 17//3
f 20//6 18//4 17//3 22//8
f 24//10 22//8 17//3 28//14
f 24//10 28//14 26//12
f 23//9 25//11 27//13 16//2
f 16//2 15//1 19//5 21//7
f 23//9 16//2 21//7
