# Blender v2.72 (sub 0) OBJ File: 'lamp_joined.blend'
# www.blender.org
mtllib bottom_pin_back.mtl
o bottom_pin_back_Luxo_by_RaccoonAnimator.020
v 0.238934 0.386592 0.118267
v 0.235317 0.384446 0.120245
v 0.235934 0.382141 0.120211
v 0.240125 0.382141 0.118202
v 0.235680 0.389849 0.118444
v 0.233633 0.386132 0.120336
v 0.231237 0.391042 0.118685
v 0.231334 0.386749 0.120461
v 0.226792 0.389849 0.118927
v 0.229032 0.386132 0.120587
v 0.223540 0.386592 0.119103
v 0.227350 0.384446 0.120678
v 0.222349 0.382141 0.119168
v 0.226733 0.382141 0.120712
v 0.223540 0.377691 0.119103
v 0.227350 0.379838 0.120678
v 0.226792 0.374433 0.118927
v 0.229032 0.378151 0.120587
v 0.231237 0.373241 0.118685
v 0.231334 0.377535 0.120461
v 0.235680 0.374433 0.118444
v 0.233633 0.378151 0.120336
v 0.238934 0.377691 0.118267
v 0.235317 0.379838 0.120245
v 0.241968 0.388435 0.115269
v 0.243652 0.382141 0.115177
v 0.237369 0.393043 0.115519
v 0.231084 0.394730 0.115860
v 0.224798 0.393043 0.116202
v 0.220198 0.388435 0.116452
v 0.218515 0.382141 0.116543
v 0.220198 0.375848 0.116452
v 0.224798 0.371241 0.116202
v 0.231084 0.369554 0.115860
v 0.237369 0.371241 0.115519
v 0.241968 0.375848 0.115269
v 0.244215 0.389849 0.111453
v 0.246277 0.382141 0.111341
v 0.238580 0.395493 0.111759
v 0.230884 0.397558 0.112178
v 0.223186 0.395493 0.112596
v 0.217552 0.389849 0.112902
v 0.215489 0.382141 0.113014
v 0.217552 0.374433 0.112902
v 0.223186 0.368790 0.112596
v 0.230884 0.366724 0.112178
v 0.238580 0.368790 0.111759
v 0.244215 0.374433 0.111453
v 0.245520 0.390738 0.107083
v 0.247819 0.382141 0.106958
v 0.239235 0.397033 0.107424
v 0.230651 0.399337 0.107891
v 0.222065 0.397033 0.108358
v 0.215781 0.390738 0.108699
v 0.213481 0.382141 0.108824
v 0.215781 0.373544 0.108699
v 0.222065 0.367251 0.108358
v 0.230651 0.364946 0.107891
v 0.239235 0.367251 0.107424
v 0.245520 0.373544 0.107083
v 0.245794 0.391042 0.102455
v 0.248175 0.382141 0.102326
v 0.239289 0.397558 0.102809
v 0.230401 0.399943 0.103292
v 0.221513 0.397558 0.103775
v 0.215006 0.391042 0.104128
v 0.212624 0.382141 0.104258
v 0.215006 0.373241 0.104128
v 0.221513 0.366724 0.103775
v 0.230401 0.364340 0.103292
v 0.239289 0.366724 0.102809
v 0.245794 0.373241 0.102455
v 0.237016 0.391042 -0.059068
v 0.239396 0.382141 -0.059198
v 0.230510 0.397558 -0.058715
v 0.221622 0.399943 -0.058232
v 0.212735 0.397558 -0.057749
v 0.206228 0.391042 -0.057395
v 0.203846 0.382141 -0.057266
v 0.206228 0.373241 -0.057395
v 0.212735 0.366724 -0.057749
v 0.221622 0.364340 -0.058232
v 0.230510 0.366724 -0.058715
v 0.237016 0.373241 -0.059068
v 0.236242 0.390738 -0.063639
v 0.238541 0.382141 -0.063764
v 0.229957 0.397033 -0.063298
v 0.221373 0.399337 -0.062831
v 0.212787 0.397033 -0.062364
v 0.206502 0.390738 -0.062023
v 0.204203 0.382141 -0.061898
v 0.206502 0.373544 -0.062023
v 0.212787 0.367251 -0.062364
v 0.221373 0.364946 -0.062831
v 0.229957 0.367251 -0.063298
v 0.236242 0.373544 -0.063639
v 0.234471 0.389849 -0.067843
v 0.236533 0.382141 -0.067955
v 0.228836 0.395493 -0.067537
v 0.221139 0.397558 -0.067119
v 0.213442 0.395493 -0.066700
v 0.207808 0.389849 -0.066394
v 0.205745 0.382141 -0.066282
v 0.207808 0.374433 -0.066394
v 0.213442 0.368790 -0.066700
v 0.221140 0.366724 -0.067119
v 0.228836 0.368790 -0.067537
v 0.234471 0.374433 -0.067843
v 0.231823 0.388435 -0.071392
v 0.233508 0.382141 -0.071483
v 0.227224 0.393043 -0.071142
v 0.220939 0.394730 -0.070800
v 0.214654 0.393043 -0.070459
v 0.210053 0.388435 -0.070209
v 0.208371 0.382141 -0.070117
v 0.210053 0.375848 -0.070209
v 0.214654 0.371241 -0.070459
v 0.220939 0.369554 -0.070800
v 0.227224 0.371241 -0.071142
v 0.231823 0.375848 -0.071392
v 0.228482 0.386592 -0.074044
v 0.229674 0.382141 -0.074109
v 0.225228 0.389849 -0.073868
v 0.220786 0.391042 -0.073626
v 0.216340 0.389849 -0.073385
v 0.213088 0.386592 -0.073208
v 0.211898 0.382141 -0.073143
v 0.213088 0.377691 -0.073208
v 0.216340 0.374433 -0.073385
v 0.220786 0.373241 -0.073626
v 0.225228 0.374433 -0.073868
v 0.228482 0.377691 -0.074044
v 0.224672 0.384446 -0.075618
v 0.225290 0.382141 -0.075651
v 0.222989 0.386132 -0.075526
v 0.220689 0.386749 -0.075401
v 0.218388 0.386132 -0.075276
v 0.216705 0.384446 -0.075185
v 0.216088 0.382141 -0.075151
v 0.216705 0.379838 -0.075185
v 0.218388 0.378151 -0.075276
v 0.220689 0.377535 -0.075401
v 0.222989 0.378151 -0.075526
v 0.224672 0.379838 -0.075618
v 0.231367 0.382141 0.121067
v 0.220656 0.382141 -0.076007
vn 0.492700 0.258000 0.831100
vn 0.287400 0.136000 0.948100
vn 0.330600 0.000000 0.943800
vn 0.561700 0.000000 0.827300
vn 0.304100 0.446800 0.841400
vn 0.191400 0.241600 0.951300
vn 0.046500 0.515900 0.855400
vn 0.052200 0.272000 0.960900
vn -0.211100 0.446800 0.869400
vn -0.087200 0.241600 0.966400
vn -0.399700 0.257900 0.879600
vn -0.182900 0.136000 0.973700
vn -0.468700 0.000000 0.883300
vn -0.226400 0.000000 0.974000
vn -0.399700 -0.257900 0.879600
vn -0.182900 -0.135900 0.973700
vn -0.211100 -0.446900 0.869300
vn -0.087100 -0.241600 0.966400
vn 0.046500 -0.516000 0.855300
vn 0.052200 -0.271900 0.960900
vn 0.304100 -0.446900 0.841300
vn 0.191400 -0.241600 0.951300
vn 0.492700 -0.258000 0.831000
vn 0.287400 -0.136000 0.948100
vn 0.658400 0.358800 0.661600
vn 0.754400 0.000000 0.656400
vn 0.396100 0.621400 0.675900
vn 0.037800 0.717600 0.695400
vn -0.320500 0.621500 0.714800
vn -0.582900 0.358700 0.729100
vn -0.678800 0.000000 0.734300
vn -0.582800 -0.358800 0.729100
vn -0.320500 -0.621400 0.714800
vn 0.037800 -0.717600 0.695400
vn 0.396100 -0.621400 0.675900
vn 0.658300 -0.358800 0.661600
vn 0.780100 0.435600 0.449100
vn 0.896600 0.000000 0.442800
vn 0.461700 0.754500 0.466400
vn 0.026600 0.871200 0.490100
vn -0.408400 0.754500 0.513700
vn -0.726800 0.435600 0.531000
vn -0.843300 0.000000 0.537400
vn -0.726800 -0.435600 0.531100
vn -0.408400 -0.754500 0.513700
vn 0.026600 -0.871200 0.490100
vn 0.461600 -0.754500 0.466400
vn 0.780000 -0.435600 0.449200
vn 0.850300 0.483600 0.207700
vn 0.979600 0.000000 0.200700
vn 0.496700 0.837700 0.227000
vn 0.013800 0.967300 0.253200
vn -0.469200 0.837700 0.279500
vn -0.822700 0.483600 0.298700
vn -0.952100 0.000000 0.305800
vn -0.822700 -0.483600 0.298700
vn -0.469200 -0.837700 0.279500
vn 0.013800 -0.967300 0.253200
vn 0.496700 -0.837700 0.227000
vn 0.850200 -0.483600 0.207700
vn 0.866500 0.498900 0.017700
vn 0.999900 0.000000 0.010400
vn 0.501800 0.864200 0.037500
vn 0.003500 0.997900 0.064600
vn -0.494700 0.864200 0.091700
vn -0.859400 0.499000 0.111500
vn -0.992900 0.000000 0.118800
vn -0.859400 -0.498900 0.111500
vn -0.494700 -0.864200 0.091700
vn 0.003500 -0.997900 0.064700
vn 0.501700 -0.864200 0.037600
vn 0.866500 -0.498900 0.017700
vn 0.859400 0.498900 -0.111500
vn 0.992900 0.000000 -0.118700
vn 0.494700 0.864200 -0.091700
vn -0.003500 0.997900 -0.064600
vn -0.501700 0.864200 -0.037500
vn -0.866400 0.499000 -0.017800
vn -0.999900 0.000000 -0.010500
vn -0.866400 -0.498900 -0.017800
vn -0.501700 -0.864200 -0.037600
vn -0.003500 -0.997900 -0.064700
vn 0.494700 -0.864200 -0.091800
vn 0.859500 -0.498900 -0.111500
vn 0.822700 0.483600 -0.298600
vn 0.952100 0.000000 -0.305600
vn 0.469200 0.837700 -0.279500
vn -0.013700 0.967300 -0.253200
vn -0.496700 0.837700 -0.226900
vn -0.850200 0.483600 -0.207800
vn -0.979600 0.000000 -0.200800
vn -0.850200 -0.483600 -0.207800
vn -0.496700 -0.837700 -0.226900
vn -0.013700 -0.967300 -0.253200
vn 0.469200 -0.837700 -0.279500
vn 0.822700 -0.483600 -0.298600
vn 0.726800 0.435600 -0.531100
vn 0.843300 0.000000 -0.537400
vn 0.408400 0.754500 -0.513700
vn -0.026600 0.871200 -0.490100
vn -0.461700 0.754500 -0.466400
vn -0.780100 0.435600 -0.449100
vn -0.896600 0.000000 -0.442900
vn -0.780000 -0.435600 -0.449200
vn -0.461600 -0.754500 -0.466400
vn -0.026600 -0.871200 -0.490100
vn 0.408300 -0.754500 -0.513700
vn 0.726800 -0.435600 -0.531100
vn 0.582800 0.358800 -0.729100
vn 0.678800 0.000000 -0.734300
vn 0.320500 0.621400 -0.714800
vn -0.037800 0.717600 -0.695400
vn -0.396100 0.621500 -0.675900
vn -0.658400 0.358800 -0.661600
vn -0.754400 0.000000 -0.656400
vn -0.658400 -0.358800 -0.661600
vn -0.396100 -0.621500 -0.675900
vn -0.037800 -0.717600 -0.695400
vn 0.320500 -0.621400 -0.714900
vn 0.582800 -0.358800 -0.729100
vn 0.399700 0.258000 -0.879600
vn 0.468700 0.000000 -0.883300
vn 0.211100 0.446800 -0.869400
vn -0.046400 0.515900 -0.855400
vn -0.304100 0.446800 -0.841300
vn -0.492700 0.257900 -0.831100
vn -0.561700 0.000000 -0.827300
vn -0.492700 -0.257900 -0.831000
vn -0.304100 -0.446900 -0.841300
vn -0.046400 -0.516000 -0.855300
vn 0.211100 -0.446900 -0.869300
vn 0.399700 -0.258000 -0.879500
vn 0.182800 0.136000 -0.973700
vn 0.226300 0.000000 -0.974000
vn 0.087100 0.241500 -0.966500
vn -0.052200 0.271900 -0.960900
vn -0.191300 0.241500 -0.951300
vn -0.287300 0.135900 -0.948100
vn -0.330500 0.000000 -0.943800
vn -0.287300 -0.135900 -0.948100
vn -0.191300 -0.241500 -0.951300
vn -0.052200 -0.271800 -0.960900
vn 0.087100 -0.241500 -0.966500
vn 0.182800 -0.135900 -0.973700
vn 0.054300 0.000000 0.998500
vn -0.054200 0.000000 -0.998500
usemtl wire_000000000
s 1
f 1//1 2//2 3//3 4//4
f 5//5 6//6 2//2 1//1
f 7//7 8//8 6//6 5//5
f 9//9 10//10 8//8 7//7
f 11//11 12//12 10//10 9//9
f 13//13 14//14 12//12 11//11
f 15//15 16//16 14//14 13//13
f 17//17 18//18 16//16 15//15
f 19//19 20//20 18//18 17//17
f 21//21 22//22 20//20 19//19
f 23//23 24//24 22//22 21//21
f 4//4 3//3 24//24 23//23
f 25//25 1//1 4//4 26//26
f 27//27 5//5 1//1 25//25
f 28//28 7//7 5//5 27//27
f 29//29 9//9 7//7 28//28
f 30//30 11//11 9//9 29//29
f 31//31 13//13 11//11 30//30
f 32//32 15//15 13//13 31//31
f 33//33 17//17 15//15 32//32
f 34//34 19//19 17//17 33//33
f 35//35 21//21 19//19 34//34
f 36//36 23//23 21//21 35//35
f 26//26 4//4 23//23 36//36
f 37//37 25//25 26//26 38//38
f 39//39 27//27 25//25 37//37
f 40//40 28//28 27//27 39//39
f 41//41 29//29 28//28 40//40
f 42//42 30//30 29//29 41//41
f 43//43 31//31 30//30 42//42
f 44//44 32//32 31//31 43//43
f 45//45 33//33 32//32 44//44
f 46//46 34//34 33//33 45//45
f 47//47 35//35 34//34 46//46
f 48//48 36//36 35//35 47//47
f 38//38 26//26 36//36 48//48
f 49//49 37//37 38//38 50//50
f 51//51 39//39 37//37 49//49
f 52//52 40//40 39//39 51//51
f 53//53 41//41 40//40 52//52
f 54//54 42//42 41//41 53//53
f 55//55 43//43 42//42 54//54
f 56//56 44//44 43//43 55//55
f 57//57 45//45 44//44 56//56
f 58//58 46//46 45//45 57//57
f 59//59 47//47 46//46 58//58
f 60//60 48//48 47//47 59//59
f 50//50 38//38 48//48 60//60
f 61//61 49//49 50//50 62//62
f 63//63 51//51 49//49 61//61
f 64//64 52//52 51//51 63//63
f 65//65 53//53 52//52 64//64
f 66//66 54//54 53//53 65//65
f 67//67 55//55 54//54 66//66
f 68//68 56//56 55//55 67//67
f 69//69 57//57 56//56 68//68
f 70//70 58//58 57//57 69//69
f 71//71 59//59 58//58 70//70
f 72//72 60//60 59//59 71//71
f 62//62 50//50 60//60 72//72
f 73//73 61//61 62//62 74//74
f 75//75 63//63 61//61 73//73
f 76//76 64//64 63//63 75//75
f 77//77 65//65 64//64 76//76
f 78//78 66//66 65//65 77//77
f 79//79 67//67 66//66 78//78
f 80//80 68//68 67//67 79//79
f 81//81 69//69 68//68 80//80
f 82//82 70//70 69//69 81//81
f 83//83 71//71 70//70 82//82
f 84//84 72//72 71//71 83//83
f 74//74 62//62 72//72 84//84
f 85//85 73//73 74//74 86//86
f 87//87 75//75 73//73 85//85
f 88//88 76//76 75//75 87//87
f 89//89 77//77 76//76 88//88
f 90//90 78//78 77//77 89//89
f 91//91 79//79 78//78 90//90
f 92//92 80//80 79//79 91//91
f 93//93 81//81 80//80 92//92
f 94//94 82//82 81//81 93//93
f 95//95 83//83 82//82 94//94
f 96//96 84//84 83//83 95//95
f 86//86 74//74 84//84 96//96
f 97//97 85//85 86//86 98//98
f 99//99 87//87 85//85 97//97
f 100//100 88//88 87//87 99//99
f 101//101 89//89 88//88 100//100
f 102//102 90//90 89//89 101//101
f 103//103 91//91 90//90 102//102
f 104//104 92//92 91//91 103//103
f 105//105 93//93 92//92 104//104
f 106//106 94//94 93//93 105//105
f 107//107 95//95 94//94 106//106
f 108//108 96//96 95//95 107//107
f 98//98 86//86 96//96 108//108
f 109//109 97//97 98//98 110//110
f 111//111 99//99 97//97 109//109
f 112//112 100//100 99//99 111//111
f 113//113 101//101 100//100 112//112
f 114//114 102//102 101//101 113//113
f 115//115 103//103 102//102 114//114
f 116//116 104//104 103//103 115//115
f 117//117 105//105 104//104 116//116
f 118//118 106//106 105//105 117//117
f 119//119 107//107 106//106 118//118
f 120//120 108//108 107//107 119//119
f 110//110 98//98 108//108 120//120
f 121//121 109//109 110//110 122//122
f 123//123 111//111 109//109 121//121
f 124//124 112//112 111//111 123//123
f 125//125 113//113 112//112 124//124
f 126//126 114//114 113//113 125//125
f 127//127 115//115 114//114 126//126
f 128//128 116//116 115//115 127//127
f 129//129 117//117 116//116 128//128
f 130//130 118//118 117//117 129//129
f 131//131 119//119 118//118 130//130
f 132//132 120//120 119//119 131//131
f 122//122 110//110 120//120 132//132
f 133//133 121//121 122//122 134//134
f 135//135 123//123 121//121 133//133
f 136//136 124//124 123//123 135//135
f 137//137 125//125 124//124 136//136
f 138//138 126//126 125//125 137//137
f 139//139 127//127 126//126 138//138
f 140//140 128//128 127//127 139//139
f 141//141 129//129 128//128 140//140
f 142//142 130//130 129//129 141//141
f 143//143 131//131 130//130 142//142
f 144//144 132//132 131//131 143//143
f 134//134 122//122 132//132 144//144
f 2//2 6//6 8//8 145//145
f 8//8 10//10 12//12 145//145
f 12//12 14//14 16//16 145//145
f 16//16 18//18 20//20 145//145
f 20//20 22//22 24//24 145//145
f 2//2 145//145 24//24 3//3
f 133//133 146//146 136//136 135//135
f 136//136 146//146 138//138 137//137
f 138//138 146//146 140//140 139//139
f 140//140 146//146 142//142 141//141
f 142//142 146//146 144//144 143//143
f 133//133 134//134 144//144 146//146
