# Blender v2.72 (sub 0) OBJ File: 'lamp_joined.blend'
# www.blender.org
mtllib bottom_brace_sides.mtl
o bottom_brace_sides_Luxo_by_RaccoonAnimator.031
v 0.340681 0.840694 0.125755
v 0.437596 0.922296 0.120488
v 0.399375 0.967826 0.122566
v 0.302461 0.886226 0.127833
v 0.213523 0.806076 0.248069
v 0.251748 0.760547 0.245992
v -0.070154 0.567224 0.263486
v -0.031931 0.521694 0.261409
v 0.336716 0.838674 0.097073
v 0.433633 0.920276 0.091806
v 0.395408 0.965806 0.093884
v 0.298494 0.884206 0.099150
v 0.209558 0.804056 0.219390
v -0.074119 0.565203 0.234807
v -0.035895 0.519674 0.232730
v 0.247782 0.758527 0.217313
v 0.290598 0.886226 -0.090437
v 0.387512 0.967826 -0.095703
v 0.425734 0.922296 -0.097781
v 0.328819 0.840694 -0.092514
v 0.227379 0.760547 -0.202406
v 0.189154 0.806076 -0.200328
v -0.056300 0.521694 -0.186989
v -0.094523 0.567224 -0.184911
v 0.424902 0.920276 -0.068840
v 0.327985 0.838674 -0.063573
v 0.386678 0.965806 -0.066762
v 0.289764 0.884206 -0.061495
v 0.188321 0.804056 -0.171387
v -0.095357 0.565203 -0.155970
v -0.057133 0.519674 -0.158048
v 0.226544 0.758527 -0.173465
vn 0.711400 -0.470500 0.521900
vn 0.863900 -0.044700 0.501700
vn 0.129000 0.830700 0.541600
vn -0.315500 0.752700 0.577800
vn -0.152300 0.666500 0.729800
vn 0.661800 -0.303300 0.685500
vn -0.756500 0.097400 0.646600
vn -0.007000 -0.795500 0.605900
vn 0.152300 -0.666500 -0.729800
vn 0.756600 -0.097400 -0.646600
vn 0.006900 0.795500 -0.605900
vn -0.661800 0.303300 -0.685500
vn -0.711400 0.470500 -0.521900
vn -0.863900 0.044700 -0.501600
vn -0.128900 -0.830700 -0.541600
vn 0.315500 -0.752700 -0.577700
vn -0.376300 0.752700 -0.540200
vn 0.069500 0.830700 -0.552400
vn 0.804400 -0.044700 -0.592300
vn 0.650700 -0.470600 -0.596000
vn 0.583600 -0.303300 -0.753200
vn -0.230500 0.666500 -0.709000
vn -0.072600 -0.795500 -0.601600
vn -0.822200 0.097400 -0.560800
vn 0.822200 -0.097400 0.560800
vn 0.230500 -0.666500 0.709000
vn 0.072500 0.795500 0.601600
vn -0.583600 0.303300 0.753200
vn -0.650700 0.470500 0.596000
vn -0.804400 0.044700 0.592300
vn -0.069500 -0.830700 0.552400
vn 0.376300 -0.752700 0.540100
usemtl 01___Default
s 1
f 1//1 2//2 3//3 4//4
f 1//1 4//4 5//5 6//6
f 5//5 7//7 8//8 6//6
f 9//9 10//10 2//2 1//1
f 10//10 11//11 3//3 2//2
f 11//11 12//12 4//4 3//3
f 12//12 13//13 5//5 4//4
f 13//13 14//14 7//7 5//5
f 14//14 15//15 8//8 7//7
f 15//15 16//16 6//6 8//8
f 16//16 9//9 1//1 6//6
f 13//13 16//16 15//15 14//14
f 16//16 13//13 12//12 9//9
f 11//11 10//10 9//9 12//12
s 2
f 17//17 18//18 19//19 20//20
f 21//21 22//22 17//17 20//20
f 21//21 23//23 24//24 22//22
f 20//20 19//19 25//25 26//26
f 19//19 18//18 27//27 25//25
f 18//18 17//17 28//28 27//27
f 17//17 22//22 29//29 28//28
f 22//22 24//24 30//30 29//29
f 24//24 23//23 31//31 30//30
f 23//23 21//21 32//32 31//31
f 21//21 20//20 26//26 32//32
f 30//30 31//31 32//32 29//29
f 28//28 26//26 25//25 27//27
f 26//26 28//28 29//29 32//32
