# Blender v2.72 (sub 0) OBJ File: 'lamp_joined.blend'
# www.blender.org
mtllib bottom_pin_front.mtl
o bottom_pin_front_Luxo_by_RaccoonAnimator.019
v -0.009708 0.574042 0.287614
v -0.005517 0.574042 0.285606
v -0.006709 0.578492 0.285671
v -0.010324 0.576345 0.287648
v -0.009961 0.581750 0.285847
v -0.012007 0.578031 0.287739
v -0.014405 0.582943 0.286089
v -0.014309 0.578649 0.287864
v -0.018849 0.581750 0.286330
v -0.016608 0.578031 0.287989
v -0.022101 0.578492 0.286507
v -0.018293 0.576345 0.288081
v -0.023292 0.574042 0.286572
v -0.018908 0.574042 0.288114
v -0.022101 0.569590 0.286507
v -0.018293 0.571737 0.288081
v -0.018849 0.566333 0.286330
v -0.016608 0.570052 0.287989
v -0.014405 0.565141 0.286089
v -0.014309 0.569434 0.287864
v -0.009961 0.566333 0.285847
v -0.012007 0.570052 0.287739
v -0.006709 0.569590 0.285671
v -0.010324 0.571737 0.287648
v -0.001988 0.574042 0.282582
v -0.003673 0.580336 0.282674
v -0.008274 0.584942 0.282924
v -0.014559 0.586629 0.283265
v -0.020842 0.584942 0.283607
v -0.025443 0.580336 0.283857
v -0.027127 0.574042 0.283948
v -0.025443 0.567747 0.283857
v -0.020842 0.563140 0.283607
v -0.014559 0.561455 0.283265
v -0.008274 0.563140 0.282924
v -0.003673 0.567747 0.282674
v 0.000636 0.574042 0.278747
v -0.001425 0.581750 0.278859
v -0.007062 0.587393 0.279165
v -0.014759 0.589458 0.279584
v -0.022454 0.587393 0.280002
v -0.028090 0.581750 0.280308
v -0.030151 0.574042 0.280420
v -0.028090 0.566333 0.280308
v -0.022454 0.560691 0.280002
v -0.014759 0.558625 0.279584
v -0.007062 0.560691 0.279165
v -0.001425 0.566333 0.278859
v 0.002179 0.574042 0.274363
v -0.000122 0.582639 0.274488
v -0.006405 0.588933 0.274829
v -0.014992 0.591236 0.275296
v -0.023576 0.588933 0.275762
v -0.029860 0.582639 0.276104
v -0.032161 0.574042 0.276229
v -0.029860 0.565444 0.276104
v -0.023576 0.559150 0.275762
v -0.014992 0.556847 0.275296
v -0.006405 0.559150 0.274829
v -0.000122 0.565444 0.274488
v 0.002534 0.574042 0.269729
v 0.000152 0.582943 0.269858
v -0.006354 0.589458 0.270212
v -0.015242 0.591842 0.270695
v -0.024129 0.589458 0.271178
v -0.030634 0.582943 0.271531
v -0.033017 0.574042 0.271661
v -0.030634 0.565141 0.271531
v -0.024129 0.558625 0.271178
v -0.015242 0.556239 0.270695
v -0.006354 0.558625 0.270212
v 0.000152 0.565141 0.269858
v -0.022940 0.574042 -0.198995
v -0.025321 0.582943 -0.198865
v -0.031828 0.589458 -0.198512
v -0.040715 0.591842 -0.198029
v -0.049602 0.589458 -0.197546
v -0.056108 0.582943 -0.197192
v -0.058490 0.574042 -0.197063
v -0.056108 0.565141 -0.197192
v -0.049602 0.558625 -0.197546
v -0.040715 0.556239 -0.198029
v -0.031828 0.558625 -0.198512
v -0.025321 0.565141 -0.198865
v -0.023795 0.574042 -0.203562
v -0.026095 0.582639 -0.203437
v -0.032379 0.588933 -0.203095
v -0.040965 0.591236 -0.202629
v -0.049550 0.588933 -0.202162
v -0.055834 0.582639 -0.201821
v -0.058135 0.574042 -0.201696
v -0.055834 0.565444 -0.201821
v -0.049550 0.559150 -0.202162
v -0.040965 0.556847 -0.202629
v -0.032379 0.559150 -0.203095
v -0.026095 0.565444 -0.203437
v -0.025804 0.574042 -0.207753
v -0.027866 0.581750 -0.207641
v -0.033502 0.587393 -0.207335
v -0.041198 0.589458 -0.206916
v -0.048894 0.587393 -0.206498
v -0.054530 0.581750 -0.206192
v -0.056591 0.574042 -0.206080
v -0.054530 0.566333 -0.206192
v -0.048894 0.560691 -0.206498
v -0.041198 0.558625 -0.206916
v -0.033502 0.560691 -0.207335
v -0.027866 0.566333 -0.207641
v -0.028828 0.574042 -0.211281
v -0.030513 0.580336 -0.211190
v -0.035114 0.584942 -0.210940
v -0.041399 0.586629 -0.210598
v -0.047682 0.584942 -0.210257
v -0.052282 0.580336 -0.210007
v -0.053967 0.574042 -0.209915
v -0.052282 0.567747 -0.210007
v -0.047682 0.563140 -0.210257
v -0.041399 0.561454 -0.210598
v -0.035114 0.563140 -0.210940
v -0.030513 0.567747 -0.211190
v -0.032664 0.574042 -0.213905
v -0.033855 0.578492 -0.213840
v -0.037108 0.581750 -0.213663
v -0.041552 0.582943 -0.213422
v -0.045995 0.581750 -0.213180
v -0.049248 0.578492 -0.213004
v -0.050439 0.574042 -0.212939
v -0.049248 0.569592 -0.213004
v -0.045995 0.566333 -0.213180
v -0.041552 0.565141 -0.213422
v -0.037108 0.566333 -0.213663
v -0.033855 0.569592 -0.213840
v -0.037047 0.574042 -0.215447
v -0.037663 0.576345 -0.215414
v -0.039347 0.578031 -0.215322
v -0.041648 0.578649 -0.215197
v -0.043948 0.578031 -0.215072
v -0.045633 0.576345 -0.214981
v -0.046248 0.574042 -0.214947
v -0.045633 0.571737 -0.214981
v -0.043948 0.570052 -0.215072
v -0.041648 0.569434 -0.215197
v -0.039347 0.570052 -0.215322
v -0.037663 0.571737 -0.215414
v -0.014276 0.574042 0.288471
v -0.041681 0.574042 -0.215804
vn 0.323800 0.000000 0.946100
vn 0.561500 0.000000 0.827500
vn 0.492500 0.257900 0.831200
vn 0.293400 0.139500 0.945700
vn 0.304000 0.446700 0.841400
vn 0.188100 0.235500 0.953500
vn 0.046400 0.515800 0.855400
vn 0.052100 0.279000 0.958900
vn -0.211100 0.446700 0.869400
vn -0.083600 0.235500 0.968300
vn -0.399500 0.257900 0.879700
vn -0.189200 0.139500 0.972000
vn -0.468600 0.000000 0.883400
vn -0.219400 0.000000 0.975600
vn -0.399500 -0.257900 0.879700
vn -0.189200 -0.139500 0.972000
vn -0.211000 -0.446700 0.869400
vn -0.083500 -0.235500 0.968300
vn 0.046400 -0.515800 0.855400
vn 0.052100 -0.279000 0.958900
vn 0.303900 -0.446700 0.841400
vn 0.188000 -0.235500 0.953500
vn 0.492500 -0.257900 0.831200
vn 0.293400 -0.139500 0.945700
vn 0.754200 0.000000 0.656600
vn 0.658200 0.358800 0.661800
vn 0.396000 0.621400 0.676000
vn 0.037800 0.717600 0.695500
vn -0.320400 0.621400 0.714900
vn -0.582700 0.358800 0.729200
vn -0.678700 0.000000 0.734400
vn -0.582700 -0.358800 0.729200
vn -0.320400 -0.621400 0.714900
vn 0.037800 -0.717600 0.695400
vn 0.395900 -0.621500 0.676000
vn 0.658300 -0.358800 0.661800
vn 0.896600 0.000000 0.442800
vn 0.780000 0.435600 0.449200
vn 0.461500 0.754500 0.466500
vn 0.026600 0.871200 0.490100
vn -0.408300 0.754500 0.513700
vn -0.726800 0.435600 0.531100
vn -0.843300 0.000000 0.537400
vn -0.726800 -0.435600 0.531100
vn -0.408300 -0.754500 0.513700
vn 0.026600 -0.871200 0.490200
vn 0.461500 -0.754500 0.466500
vn 0.780000 -0.435600 0.449200
vn 0.979600 0.000000 0.200600
vn 0.850200 0.483700 0.207700
vn 0.496700 0.837700 0.226900
vn 0.013700 0.967300 0.253100
vn -0.469200 0.837700 0.279400
vn -0.822700 0.483700 0.298600
vn -0.952100 0.000000 0.305600
vn -0.822700 -0.483700 0.298600
vn -0.469200 -0.837700 0.279500
vn 0.013700 -0.967300 0.253300
vn 0.496700 -0.837700 0.226900
vn 0.850200 -0.483700 0.207600
vn 0.999900 0.000000 0.010400
vn 0.866400 0.499000 0.017600
vn 0.501600 0.864300 0.037500
vn 0.003500 0.997900 0.064500
vn -0.494700 0.864200 0.091600
vn -0.859400 0.499000 0.111500
vn -0.992900 0.000000 0.118700
vn -0.859400 -0.498900 0.111500
vn -0.494800 -0.864200 0.091700
vn 0.003500 -0.997900 0.064600
vn 0.501700 -0.864200 0.037500
vn 0.866500 -0.498900 0.017600
vn 0.992900 0.000000 -0.118700
vn 0.859400 0.499000 -0.111500
vn 0.494600 0.864300 -0.091600
vn -0.003500 0.997900 -0.064500
vn -0.501700 0.864200 -0.037500
vn -0.866400 0.499000 -0.017700
vn -0.999900 0.000000 -0.010400
vn -0.866400 -0.498900 -0.017700
vn -0.501800 -0.864200 -0.037500
vn -0.003500 -0.997900 -0.064600
vn 0.494700 -0.864200 -0.091600
vn 0.859400 -0.498900 -0.111400
vn 0.952100 0.000000 -0.305600
vn 0.822700 0.483600 -0.298700
vn 0.469200 0.837700 -0.279400
vn -0.013800 0.967300 -0.253100
vn -0.496700 0.837700 -0.226900
vn -0.850200 0.483700 -0.207700
vn -0.979600 0.000000 -0.200700
vn -0.850200 -0.483700 -0.207700
vn -0.496700 -0.837700 -0.227000
vn -0.013800 -0.967300 -0.253300
vn 0.469200 -0.837700 -0.279500
vn 0.822700 -0.483600 -0.298600
vn 0.843300 0.000000 -0.537400
vn 0.726700 0.435600 -0.531100
vn 0.408200 0.754500 -0.513800
vn -0.026600 0.871200 -0.490100
vn -0.461600 0.754500 -0.466500
vn -0.780000 0.435600 -0.449200
vn -0.896600 0.000000 -0.442900
vn -0.780000 -0.435600 -0.449200
vn -0.461600 -0.754500 -0.466500
vn -0.026600 -0.871200 -0.490100
vn 0.408300 -0.754500 -0.513800
vn 0.726700 -0.435600 -0.531100
vn 0.678700 0.000000 -0.734400
vn 0.582700 0.358800 -0.729200
vn 0.320400 0.621400 -0.714900
vn -0.037800 0.717600 -0.695500
vn -0.396000 0.621400 -0.676000
vn -0.658300 0.358800 -0.661700
vn -0.754300 0.000000 -0.656500
vn -0.658300 -0.358800 -0.661700
vn -0.396000 -0.621400 -0.676000
vn -0.037800 -0.717600 -0.695400
vn 0.320400 -0.621400 -0.714900
vn 0.582700 -0.358800 -0.729200
vn 0.468500 0.000000 -0.883400
vn 0.399500 0.257900 -0.879700
vn 0.211000 0.446700 -0.869400
vn -0.046500 0.515800 -0.855400
vn -0.304100 0.446700 -0.841400
vn -0.492500 0.257900 -0.831200
vn -0.561500 0.000000 -0.827400
vn -0.492500 -0.257900 -0.831200
vn -0.304000 -0.446700 -0.841400
vn -0.046500 -0.515800 -0.855400
vn 0.211000 -0.446700 -0.869400
vn 0.399500 -0.257900 -0.879700
vn 0.219400 0.000000 -0.975600
vn 0.189200 0.139500 -0.972000
vn 0.083600 0.235500 -0.968200
vn -0.052100 0.279000 -0.958900
vn -0.188000 0.235500 -0.953500
vn -0.293400 0.139500 -0.945700
vn -0.323800 0.000000 -0.946100
vn -0.293400 -0.139500 -0.945700
vn -0.188000 -0.235500 -0.953500
vn -0.052100 -0.279000 -0.958900
vn 0.083600 -0.235500 -0.968200
vn 0.189200 -0.139500 -0.972000
vn 0.054200 0.000000 0.998500
vn -0.054300 0.000000 -0.998500
usemtl wire_135110008
s 1
f 1//1 2//2 3//3 4//4
f 4//4 3//3 5//5 6//6
f 6//6 5//5 7//7 8//8
f 8//8 7//7 9//9 10//10
f 10//10 9//9 11//11 12//12
f 12//12 11//11 13//13 14//14
f 14//14 13//13 15//15 16//16
f 16//16 15//15 17//17 18//18
f 18//18 17//17 19//19 20//20
f 20//20 19//19 21//21 22//22
f 22//22 21//21 23//23 24//24
f 24//24 23//23 2//2 1//1
f 2//2 25//25 26//26 3//3
f 3//3 26//26 27//27 5//5
f 5//5 27//27 28//28 7//7
f 7//7 28//28 29//29 9//9
f 9//9 29//29 30//30 11//11
f 11//11 30//30 31//31 13//13
f 13//13 31//31 32//32 15//15
f 15//15 32//32 33//33 17//17
f 17//17 33//33 34//34 19//19
f 19//19 34//34 35//35 21//21
f 21//21 35//35 36//36 23//23
f 23//23 36//36 25//25 2//2
f 25//25 37//37 38//38 26//26
f 26//26 38//38 39//39 27//27
f 27//27 39//39 40//40 28//28
f 28//28 40//40 41//41 29//29
f 29//29 41//41 42//42 30//30
f 30//30 42//42 43//43 31//31
f 31//31 43//43 44//44 32//32
f 32//32 44//44 45//45 33//33
f 33//33 45//45 46//46 34//34
f 34//34 46//46 47//47 35//35
f 35//35 47//47 48//48 36//36
f 36//36 48//48 37//37 25//25
f 37//37 49//49 50//50 38//38
f 38//38 50//50 51//51 39//39
f 39//39 51//51 52//52 40//40
f 40//40 52//52 53//53 41//41
f 41//41 53//53 54//54 42//42
f 42//42 54//54 55//55 43//43
f 43//43 55//55 56//56 44//44
f 44//44 56//56 57//57 45//45
f 45//45 57//57 58//58 46//46
f 46//46 58//58 59//59 47//47
f 47//47 59//59 60//60 48//48
f 48//48 60//60 49//49 37//37
f 49//49 61//61 62//62 50//50
f 50//50 62//62 63//63 51//51
f 51//51 63//63 64//64 52//52
f 52//52 64//64 65//65 53//53
f 53//53 65//65 66//66 54//54
f 54//54 66//66 67//67 55//55
f 55//55 67//67 68//68 56//56
f 56//56 68//68 69//69 57//57
f 57//57 69//69 70//70 58//58
f 58//58 70//70 71//71 59//59
f 59//59 71//71 72//72 60//60
f 60//60 72//72 61//61 49//49
f 61//61 73//73 74//74 62//62
f 62//62 74//74 75//75 63//63
f 63//63 75//75 76//76 64//64
f 64//64 76//76 77//77 65//65
f 65//65 77//77 78//78 66//66
f 66//66 78//78 79//79 67//67
f 67//67 79//79 80//80 68//68
f 68//68 80//80 81//81 69//69
f 69//69 81//81 82//82 70//70
f 70//70 82//82 83//83 71//71
f 71//71 83//83 84//84 72//72
f 72//72 84//84 73//73 61//61
f 73//73 85//85 86//86 74//74
f 74//74 86//86 87//87 75//75
f 75//75 87//87 88//88 76//76
f 76//76 88//88 89//89 77//77
f 77//77 89//89 90//90 78//78
f 78//78 90//90 91//91 79//79
f 79//79 91//91 92//92 80//80
f 80//80 92//92 93//93 81//81
f 81//81 93//93 94//94 82//82
f 82//82 94//94 95//95 83//83
f 83//83 95//95 96//96 84//84
f 84//84 96//96 85//85 73//73
f 85//85 97//97 98//98 86//86
f 86//86 98//98 99//99 87//87
f 87//87 99//99 100//100 88//88
f 88//88 100//100 101//101 89//89
f 89//89 101//101 102//102 90//90
f 90//90 102//102 103//103 91//91
f 91//91 103//103 104//104 92//92
f 92//92 104//104 105//105 93//93
f 93//93 105//105 106//106 94//94
f 94//94 106//106 107//107 95//95
f 95//95 107//107 108//108 96//96
f 96//96 108//108 97//97 85//85
f 97//97 109//109 110//110 98//98
f 98//98 110//110 111//111 99//99
f 99//99 111//111 112//112 100//100
f 100//100 112//112 113//113 101//101
f 101//101 113//113 114//114 102//102
f 102//102 114//114 115//115 103//103
f 103//103 115//115 116//116 104//104
f 104//104 116//116 117//117 105//105
f 105//105 117//117 118//118 106//106
f 106//106 118//118 119//119 107//107
f 107//107 119//119 120//120 108//108
f 108//108 120//120 109//109 97//97
f 109//109 121//121 122//122 110//110
f 110//110 122//122 123//123 111//111
f 111//111 123//123 124//124 112//112
f 112//112 124//124 125//125 113//113
f 113//113 125//125 126//126 114//114
f 114//114 126//126 127//127 115//115
f 115//115 127//127 128//128 116//116
f 116//116 128//128 129//129 117//117
f 117//117 129//129 130//130 118//118
f 118//118 130//130 131//131 119//119
f 119//119 131//131 132//132 120//120
f 120//120 132//132 121//121 109//109
f 121//121 133//133 134//134 122//122
f 122//122 134//134 135//135 123//123
f 123//123 135//135 136//136 124//124
f 124//124 136//136 137//137 125//125
f 125//125 137//137 138//138 126//126
f 126//126 138//138 139//139 127//127
f 127//127 139//139 140//140 128//128
f 128//128 140//140 141//141 129//129
f 129//129 141//141 142//142 130//130
f 130//130 142//142 143//143 131//131
f 131//131 143//143 144//144 132//132
f 132//132 144//144 133//133 121//121
f 1//1 4//4 6//6 145//145
f 6//6 8//8 10//10 145//145
f 10//10 12//12 14//14 145//145
f 14//14 16//16 18//18 145//145
f 18//18 20//20 22//22 145//145
f 22//22 24//24 1//1 145//145
f 133//133 146//146 135//135 134//134
f 135//135 146//146 137//137 136//136
f 137//137 146//146 139//139 138//138
f 139//139 146//146 141//141 140//140
f 141//141 146//146 143//143 142//142
f 143//143 146//146 133//133 144//144
