# Blender v2.72 (sub 0) OBJ File: 'lamp_joined.blend'
# www.blender.org
mtllib bottom_neck_sides.mtl
o bottom_neck_sides_Luxo_by_RaccoonAnimator.016
v 0.405858 0.953470 -0.059912
v 0.393677 0.959792 -0.059250
v 0.395252 0.959792 -0.030269
v 0.407433 0.953470 -0.030931
v 0.381900 0.964071 -0.058610
v 0.383475 0.964071 -0.029629
v 0.370572 0.966238 -0.057994
v 0.372147 0.966238 -0.029013
v 0.359741 0.966224 -0.057406
v 0.361316 0.966224 -0.028425
v 0.349453 0.963959 -0.056847
v 0.351028 0.963959 -0.027865
v 0.339752 0.959375 -0.056320
v 0.341327 0.959375 -0.027338
v 0.330686 0.952405 -0.055827
v 0.332261 0.952405 -0.026846
v 0.323817 0.945027 -0.055453
v 0.325392 0.945027 -0.026472
v 0.317297 0.936013 -0.055099
v 0.318872 0.936013 -0.026118
v 0.311888 0.925944 -0.054805
v 0.313463 0.925944 -0.025824
v 0.308352 0.915402 -0.054613
v 0.309927 0.915402 -0.025632
v 0.307448 0.904970 -0.054564
v 0.309023 0.904970 -0.025583
v 0.309934 0.895230 -0.054699
v 0.311509 0.895230 -0.025718
v 0.316573 0.886762 -0.055060
v 0.318148 0.886762 -0.026079
v 0.611857 0.635300 -0.071108
v 0.613432 0.635300 -0.042126
v 0.689739 0.685717 -0.075340
v 0.691314 0.685717 -0.046359
v 0.636926 1.128036 -0.072470
v 0.638501 1.128036 -0.043489
v 0.633750 1.136196 -0.072297
v 0.635325 1.136196 -0.043316
v 0.627991 1.142514 -0.071984
v 0.629566 1.142514 -0.043003
v 0.620462 1.147172 -0.071575
v 0.622037 1.147172 -0.042594
v 0.611978 1.150349 -0.071114
v 0.613554 1.150349 -0.042133
v 0.603354 1.152228 -0.070645
v 0.604929 1.152228 -0.041664
v 0.595406 1.152989 -0.070213
v 0.596981 1.152989 -0.041232
v 0.588945 1.152809 -0.069862
v 0.590521 1.152809 -0.040881
v 0.580559 1.151225 -0.069407
v 0.582134 1.151225 -0.040425
v 0.573508 1.148611 -0.069023
v 0.575083 1.148611 -0.040042
v 0.567733 1.145233 -0.068710
v 0.569308 1.145233 -0.039728
v 0.563169 1.141360 -0.068462
v 0.564745 1.141360 -0.039480
v 0.559759 1.137261 -0.068276
v 0.561335 1.137261 -0.039295
v 0.557438 1.133203 -0.068150
v 0.559013 1.133203 -0.039169
v 0.556145 1.129455 -0.068080
v 0.557720 1.129455 -0.039099
v 0.502930 0.895994 -0.065188
v 0.504505 0.895994 -0.036206
v 0.412158 0.953470 0.056015
v 0.399977 0.959792 0.056677
v 0.401552 0.959792 0.085658
v 0.413733 0.953470 0.084996
v 0.388200 0.964071 0.057317
v 0.389775 0.964071 0.086298
v 0.376872 0.966238 0.057932
v 0.378447 0.966238 0.086914
v 0.366041 0.966224 0.058521
v 0.367616 0.966224 0.087502
v 0.355753 0.963959 0.059080
v 0.357328 0.963959 0.088061
v 0.346052 0.959375 0.059607
v 0.347627 0.959375 0.088589
v 0.336986 0.952405 0.060100
v 0.338561 0.952405 0.089081
v 0.330117 0.945027 0.060473
v 0.331692 0.945027 0.089455
v 0.323598 0.936013 0.060828
v 0.325173 0.936013 0.089809
v 0.318189 0.925944 0.061122
v 0.319764 0.925944 0.090103
v 0.314652 0.915402 0.061314
v 0.316227 0.915402 0.090295
v 0.313748 0.904970 0.061363
v 0.315323 0.904970 0.090344
v 0.316234 0.895230 0.061228
v 0.317810 0.895230 0.090209
v 0.322874 0.886762 0.060867
v 0.324449 0.886762 0.089848
v 0.618157 0.635300 0.044819
v 0.619732 0.635300 0.073801
v 0.696039 0.685717 0.040587
v 0.697614 0.685717 0.069568
v 0.643226 1.128036 0.043457
v 0.644801 1.128036 0.072438
v 0.640051 1.136196 0.043630
v 0.641626 1.136196 0.072611
v 0.634291 1.142514 0.043943
v 0.635866 1.142514 0.072924
v 0.626762 1.147172 0.044352
v 0.628337 1.147172 0.073333
v 0.618279 1.150349 0.044813
v 0.619854 1.150349 0.073794
v 0.609654 1.152228 0.045281
v 0.611229 1.152228 0.074263
v 0.601706 1.152989 0.045713
v 0.603281 1.152989 0.074695
v 0.595246 1.152809 0.046065
v 0.596821 1.152809 0.075046
v 0.586859 1.151225 0.046520
v 0.588434 1.151225 0.075502
v 0.579808 1.148611 0.046904
v 0.581383 1.148611 0.075885
v 0.574033 1.145233 0.047217
v 0.575608 1.145233 0.076199
v 0.569470 1.141360 0.047465
v 0.571045 1.141360 0.076447
v 0.566060 1.137261 0.047651
v 0.567635 1.137261 0.076632
v 0.563738 1.133203 0.047777
v 0.565313 1.133203 0.076758
v 0.562445 1.129455 0.047847
v 0.564020 1.129455 0.076828
v 0.509231 0.895994 0.050739
v 0.510806 0.895994 0.079720
vn 0.307200 0.623900 -0.718600
vn 0.251500 0.660500 -0.707400
vn 0.326600 0.660500 0.676000
vn 0.383300 0.623900 0.681100
vn 0.154300 0.698200 -0.699000
vn 0.229200 0.698200 0.678200
vn 0.030700 0.724100 -0.689000
vn 0.105200 0.724100 0.681600
vn -0.116200 0.725400 -0.678400
vn -0.042000 0.725400 0.687000
vn -0.272500 0.691500 -0.668900
vn -0.198400 0.691500 0.694500
vn -0.416500 0.622900 -0.662200
vn -0.342300 0.622900 0.703500
vn -0.524100 0.536500 -0.661500
vn -0.449300 0.536400 0.714400
vn -0.593100 0.457800 -0.662300
vn -0.517800 0.457800 0.722600
vn -0.647900 0.383400 -0.658200
vn -0.572700 0.383400 0.724500
vn -0.701800 0.288300 -0.651400
vn -0.627100 0.288300 0.723600
vn -0.752500 0.149200 -0.641500
vn -0.678500 0.149200 0.719200
vn -0.774100 -0.060600 -0.630100
vn -0.701200 -0.060600 0.710300
vn -0.706100 -0.330800 -0.626100
vn -0.634100 -0.330800 0.698900
vn -0.561300 -0.504800 -0.655800
vn -0.487000 -0.504800 0.712700
vn -0.084700 -0.802500 -0.590600
vn -0.020200 -0.802500 0.596300
vn 0.686700 -0.338400 -0.643300
vn 0.752400 -0.338400 0.565100
vn 0.673500 0.178100 -0.717400
vn 0.747200 0.178100 0.640200
vn 0.594900 0.392500 -0.701400
vn 0.667400 0.392500 0.632800
vn 0.432100 0.566400 -0.701700
vn 0.505600 0.566400 0.650800
vn 0.282500 0.653600 -0.702100
vn 0.357000 0.653600 0.667400
vn 0.166100 0.693200 -0.701300
vn 0.241100 0.693200 0.679200
vn 0.073200 0.711400 -0.699000
vn 0.148500 0.711400 0.686900
vn -0.013300 0.720000 -0.693800
vn 0.061900 0.720000 0.691200
vn -0.114700 0.719900 -0.684500
vn -0.039900 0.719900 0.692900
vn -0.230800 0.698700 -0.677100
vn -0.156100 0.698700 0.698200
vn -0.347000 0.656000 -0.670200
vn -0.272300 0.656000 0.703800
vn -0.455900 0.592400 -0.664200
vn -0.381200 0.592400 0.709700
vn -0.551800 0.510900 -0.659200
vn -0.477100 0.510900 0.715100
vn -0.632300 0.414200 -0.654700
vn -0.557600 0.414200 0.719300
vn -0.698200 0.300700 -0.649700
vn -0.623600 0.300700 0.721500
vn -0.727900 0.197600 -0.656600
vn -0.652400 0.197600 0.731600
vn -0.316800 0.648100 -0.692600
vn -0.239900 0.648100 0.722800
vn -0.727900 0.197700 -0.656600
vn -0.652400 0.197700 0.731600
vn -0.316800 0.648000 -0.692600
usemtl wire_148177027
s 1
f 1//1 2//2 3//3 4//4
f 2//2 5//5 6//6 3//3
f 5//5 7//7 8//8 6//6
f 7//7 9//9 10//10 8//8
f 9//9 11//11 12//12 10//10
f 11//11 13//13 14//14 12//12
f 13//13 15//15 16//16 14//14
f 15//15 17//17 18//18 16//16
f 17//17 19//19 20//20 18//18
f 19//19 21//21 22//22 20//20
f 21//21 23//23 24//24 22//22
f 23//23 25//25 26//26 24//24
f 25//25 27//27 28//28 26//26
f 27//27 29//29 30//30 28//28
f 29//29 31//31 32//32 30//30
f 31//31 33//33 34//34 32//32
f 33//33 35//35 36//36 34//34
f 35//35 37//37 38//38 36//36
f 37//37 39//39 40//40 38//38
f 39//39 41//41 42//42 40//40
f 41//41 43//43 44//44 42//42
f 43//43 45//45 46//46 44//44
f 45//45 47//47 48//48 46//46
f 47//47 49//49 50//50 48//48
f 49//49 51//51 52//52 50//50
f 51//51 53//53 54//54 52//52
f 53//53 55//55 56//56 54//54
f 55//55 57//57 58//58 56//56
f 57//57 59//59 60//60 58//58
f 59//59 61//61 62//62 60//60
f 61//61 63//63 64//64 62//62
f 63//63 65//65 66//66 64//64
f 65//65 1//1 4//4 66//66
f 29//29 25//25 33//33 31//31
f 25//25 29//29 27//27
f 23//23 21//21 33//33 25//25
f 19//19 17//17 33//33 21//21
f 15//15 13//13 33//33 17//17
f 11//11 9//9 33//33 13//13
f 7//7 5//5 33//33 9//9
f 2//2 1//1 33//33 5//5
f 65//65 35//35 33//33 1//1
f 63//63 37//37 35//35 65//65
f 63//63 41//41 39//39 37//37
f 63//63 45//45 43//43 41//41
f 63//63 49//49 47//47 45//45
f 63//63 53//53 51//51 49//49
f 63//63 57//57 55//55 53//53
f 63//63 61//61 59//59 57//57
f 30//30 32//32 34//34 26//26
f 26//26 28//28 30//30
f 24//24 26//26 34//34 22//22
f 20//20 22//22 34//34 18//18
f 16//16 18//18 34//34 14//14
f 12//12 14//14 34//34 10//10
f 8//8 10//10 34//34 6//6
f 3//3 6//6 34//34 4//4
f 66//66 4//4 34//34 36//36
f 64//64 66//66 36//36 38//38
f 64//64 38//38 40//40 42//42
f 64//64 42//42 44//44 46//46
f 64//64 46//46 48//48 50//50
f 64//64 50//50 52//52 54//54
f 64//64 54//54 56//56 58//58
f 64//64 58//58 60//60 62//62
s 2
f 67//1 68//2 69//3 70//4
f 68//2 71//5 72//6 69//3
f 71//5 73//7 74//8 72//6
f 73//7 75//9 76//10 74//8
f 75//9 77//11 78//12 76//10
f 77//11 79//13 80//14 78//12
f 79//13 81//15 82//16 80//14
f 81//15 83//17 84//18 82//16
f 83//17 85//19 86//20 84//18
f 85//19 87//21 88//22 86//20
f 87//21 89//23 90//24 88//22
f 89//23 91//25 92//26 90//24
f 91//25 93//27 94//28 92//26
f 93//27 95//29 96//30 94//28
f 95//29 97//31 98//32 96//30
f 97//31 99//33 100//34 98//32
f 99//33 101//35 102//36 100//34
f 101//35 103//37 104//38 102//36
f 103//37 105//39 106//40 104//38
f 105//39 107//41 108//42 106//40
f 107//41 109//43 110//44 108//42
f 109//43 111//45 112//46 110//44
f 111//45 113//47 114//48 112//46
f 113//47 115//49 116//50 114//48
f 115//49 117//51 118//52 116//50
f 117//51 119//53 120//54 118//52
f 119//53 121//55 122//56 120//54
f 121//55 123//57 124//58 122//56
f 123//57 125//59 126//60 124//58
f 125//59 127//61 128//62 126//60
f 127//61 129//67 130//68 128//62
f 129//67 131//69 132//66 130//68
f 131//69 67//1 70//4 132//66
f 95//29 91//25 99//33 97//31
f 91//25 95//29 93//27
f 89//23 87//21 99//33 91//25
f 85//19 83//17 99//33 87//21
f 81//15 79//13 99//33 83//17
f 77//11 75//9 99//33 79//13
f 73//7 71//5 99//33 75//9
f 68//2 67//1 99//33 71//5
f 131//69 101//35 99//33 67//1
f 129//67 103//37 101//35 131//69
f 129//67 107//41 105//39 103//37
f 129//67 111//45 109//43 107//41
f 129//67 115//49 113//47 111//45
f 129//67 119//53 117//51 115//49
f 129//67 123//57 121//55 119//53
f 129//67 127//61 125//59 123//57
f 96//30 98//32 100//34 92//26
f 92//26 94//28 96//30
f 90//24 92//26 100//34 88//22
f 86//20 88//22 100//34 84//18
f 82//16 84//18 100//34 80//14
f 78//12 80//14 100//34 76//10
f 74//8 76//10 100//34 72//6
f 69//3 72//6 100//34 70//4
f 132//66 70//4 100//34 102//36
f 130//68 132//66 102//36 104//38
f 130//68 104//38 106//40 108//42
f 130//68 108//42 110//44 112//46
f 130//68 112//46 114//48 116//50
f 130//68 116//50 118//52 120//54
f 130//68 120//54 122//56 124//58
f 130//68 124//58 126//60 128//62
