# Blender v2.72 (sub 0) OBJ File: 'lamp_joined.blend'
# www.blender.org
mtllib center_pin_front.mtl
o center_pin_front_Luxo_by_RaccoonAnimator.018
v 0.379324 0.911017 0.145000
v 0.383276 0.913321 0.144176
v 0.381592 0.915007 0.144268
v 0.376992 0.915007 0.144518
v 0.375307 0.913321 0.144609
v 0.375307 0.908714 0.144609
v 0.376992 0.907027 0.144518
v 0.381592 0.907027 0.144268
v 0.383276 0.908714 0.144176
v 0.383893 0.911017 0.144143
v 0.388083 0.911017 0.142134
v 0.386892 0.915468 0.142199
v 0.383639 0.918725 0.142376
v 0.379195 0.919918 0.142617
v 0.379291 0.915624 0.144393
v 0.374752 0.918725 0.142859
v 0.371498 0.915468 0.143035
v 0.370307 0.911017 0.143100
v 0.374690 0.911017 0.144643
v 0.371498 0.906567 0.143035
v 0.374752 0.903309 0.142859
v 0.379195 0.902116 0.142617
v 0.379291 0.906409 0.144393
v 0.383639 0.903309 0.142376
v 0.386892 0.906567 0.142199
v 0.391610 0.911017 0.139109
v 0.389927 0.917311 0.139201
v 0.385326 0.921919 0.139451
v 0.379041 0.923605 0.139792
v 0.372757 0.921919 0.140134
v 0.368158 0.917311 0.140384
v 0.366473 0.911017 0.140475
v 0.368158 0.904724 0.140384
v 0.372757 0.900116 0.140134
v 0.379041 0.898430 0.139792
v 0.385326 0.900116 0.139451
v 0.389927 0.904724 0.139201
v 0.394236 0.911017 0.135275
v 0.392173 0.918725 0.135387
v 0.386538 0.924368 0.135693
v 0.378841 0.926433 0.136112
v 0.371145 0.924368 0.136530
v 0.365510 0.918725 0.136836
v 0.363447 0.911017 0.136948
v 0.365510 0.903309 0.136836
v 0.371145 0.897666 0.136530
v 0.378841 0.895600 0.136112
v 0.386538 0.897666 0.135693
v 0.392173 0.903309 0.135387
v 0.395778 0.911017 0.130891
v 0.393478 0.919614 0.131016
v 0.387193 0.925908 0.131358
v 0.378608 0.928211 0.131824
v 0.370024 0.925908 0.132291
v 0.363738 0.919614 0.132632
v 0.361439 0.911017 0.132757
v 0.363738 0.902419 0.132632
v 0.370024 0.896127 0.132291
v 0.378608 0.893822 0.131824
v 0.387193 0.896127 0.131358
v 0.393478 0.902419 0.131016
v 0.396134 0.911017 0.126258
v 0.393753 0.919918 0.126387
v 0.387246 0.926433 0.126741
v 0.378358 0.928819 0.127224
v 0.369471 0.926433 0.127707
v 0.362964 0.919918 0.128061
v 0.360584 0.911017 0.128190
v 0.362964 0.902116 0.128061
v 0.369471 0.895600 0.127707
v 0.378358 0.893216 0.127224
v 0.387246 0.895600 0.126741
v 0.393753 0.902116 0.126387
v 0.383891 0.911017 -0.099024
v 0.381508 0.919918 -0.098894
v 0.375003 0.926433 -0.098541
v 0.366115 0.928819 -0.098058
v 0.357227 0.926433 -0.097575
v 0.350721 0.919918 -0.097221
v 0.348340 0.911017 -0.097092
v 0.350721 0.902116 -0.097221
v 0.357227 0.895600 -0.097575
v 0.366115 0.893216 -0.098058
v 0.375003 0.895600 -0.098541
v 0.381508 0.902116 -0.098894
v 0.383035 0.911017 -0.103591
v 0.380735 0.919614 -0.103466
v 0.374449 0.925908 -0.103124
v 0.365865 0.928211 -0.102658
v 0.357281 0.925908 -0.102191
v 0.350995 0.919614 -0.101850
v 0.348695 0.911017 -0.101725
v 0.350995 0.902419 -0.101850
v 0.357281 0.896127 -0.102191
v 0.365865 0.893822 -0.102658
v 0.374449 0.896127 -0.103124
v 0.380735 0.902419 -0.103466
v 0.381025 0.911017 -0.107782
v 0.378963 0.918725 -0.107670
v 0.373329 0.924368 -0.107364
v 0.365632 0.926433 -0.106946
v 0.357935 0.924368 -0.106527
v 0.352301 0.918725 -0.106221
v 0.350238 0.911017 -0.106109
v 0.352301 0.903309 -0.106221
v 0.357935 0.897666 -0.106527
v 0.365632 0.895600 -0.106946
v 0.373329 0.897666 -0.107364
v 0.378963 0.903309 -0.107670
v 0.378000 0.911017 -0.111309
v 0.376318 0.917311 -0.111218
v 0.371717 0.921919 -0.110968
v 0.365432 0.923605 -0.110626
v 0.359147 0.921919 -0.110285
v 0.354548 0.917311 -0.110035
v 0.352864 0.911017 -0.109943
v 0.354548 0.904724 -0.110035
v 0.359147 0.900116 -0.110285
v 0.365432 0.898430 -0.110626
v 0.371717 0.900116 -0.110968
v 0.376318 0.904724 -0.111218
v 0.374166 0.911017 -0.113934
v 0.372975 0.915468 -0.113869
v 0.369723 0.918725 -0.113692
v 0.365278 0.919918 -0.113451
v 0.360835 0.918725 -0.113209
v 0.357582 0.915468 -0.113033
v 0.356391 0.911017 -0.112968
v 0.357582 0.906567 -0.113033
v 0.360835 0.903309 -0.113209
v 0.365278 0.902116 -0.113451
v 0.369723 0.903309 -0.113692
v 0.372975 0.906567 -0.113869
v 0.369782 0.911017 -0.115477
v 0.369166 0.913321 -0.115444
v 0.367483 0.915007 -0.115352
v 0.365182 0.915624 -0.115227
v 0.362882 0.915007 -0.115102
v 0.361198 0.913321 -0.115011
v 0.360581 0.911017 -0.114977
v 0.361198 0.908714 -0.115011
v 0.362882 0.907027 -0.115102
v 0.365182 0.906409 -0.115227
v 0.367483 0.907027 -0.115352
v 0.369166 0.908714 -0.115444
v 0.365149 0.911017 -0.115833
vn 0.054300 0.000000 0.998500
vn 0.293600 0.132100 0.946700
vn 0.184100 0.241800 0.952700
vn -0.079700 0.241800 0.967000
vn -0.189200 0.132200 0.973000
vn -0.189200 -0.132100 0.973000
vn -0.079800 -0.241800 0.967000
vn 0.184100 -0.241800 0.952700
vn 0.293600 -0.132100 0.946700
vn 0.330700 0.000000 0.943700
vn 0.561600 0.000000 0.827400
vn 0.492600 0.257900 0.831100
vn 0.304000 0.446700 0.841400
vn 0.046500 0.515800 0.855400
vn 0.052100 0.279000 0.958900
vn -0.211100 0.446700 0.869400
vn -0.399600 0.258000 0.879600
vn -0.468700 0.000000 0.883300
vn -0.226500 0.000000 0.974000
vn -0.399600 -0.258000 0.879600
vn -0.211100 -0.446800 0.869400
vn 0.046400 -0.515900 0.855400
vn 0.052100 -0.279000 0.958900
vn 0.304100 -0.446800 0.841400
vn 0.492600 -0.257900 0.831100
vn 0.754300 0.000000 0.656500
vn 0.658300 0.358700 0.661700
vn 0.396000 0.621400 0.675900
vn 0.037800 0.717600 0.695400
vn -0.320500 0.621400 0.714900
vn -0.582700 0.358800 0.729200
vn -0.678700 0.000000 0.734400
vn -0.582700 -0.358700 0.729200
vn -0.320500 -0.621400 0.715000
vn 0.037800 -0.717500 0.695500
vn 0.396000 -0.621400 0.676000
vn 0.658300 -0.358700 0.661700
vn 0.896500 0.000000 0.442900
vn 0.780000 0.435600 0.449200
vn 0.461600 0.754500 0.466400
vn 0.026600 0.871200 0.490100
vn -0.408300 0.754500 0.513700
vn -0.726700 0.435600 0.531100
vn -0.843200 0.000000 0.537500
vn -0.726700 -0.435600 0.531200
vn -0.408300 -0.754500 0.513800
vn 0.026600 -0.871200 0.490100
vn 0.461600 -0.754500 0.466500
vn 0.780000 -0.435600 0.449200
vn 0.979600 0.000000 0.200700
vn 0.850200 0.483600 0.207800
vn 0.496600 0.837700 0.227000
vn 0.013700 0.967300 0.253200
vn -0.469100 0.837700 0.279500
vn -0.822700 0.483600 0.298700
vn -0.952100 0.000000 0.305700
vn -0.822700 -0.483700 0.298700
vn -0.469100 -0.837700 0.279500
vn 0.013700 -0.967300 0.253200
vn 0.496700 -0.837700 0.227000
vn 0.850200 -0.483700 0.207800
vn 0.999900 0.000000 0.010500
vn 0.866400 0.499000 0.017700
vn 0.501700 0.864200 0.037600
vn 0.003500 0.997900 0.064700
vn -0.494700 0.864200 0.091700
vn -0.859400 0.498900 0.111500
vn -0.992900 0.000000 0.118700
vn -0.859400 -0.498900 0.111500
vn -0.494600 -0.864200 0.091700
vn 0.003500 -0.997900 0.064700
vn 0.501700 -0.864200 0.037600
vn 0.866400 -0.498900 0.017700
vn 0.992900 0.000000 -0.118700
vn 0.859400 0.499000 -0.111500
vn 0.494700 0.864200 -0.091700
vn -0.003500 0.997900 -0.064700
vn -0.501700 0.864200 -0.037600
vn -0.866400 0.498900 -0.017700
vn -0.999900 0.000000 -0.010400
vn -0.866500 -0.498900 -0.017700
vn -0.501700 -0.864200 -0.037600
vn -0.003500 -0.997900 -0.064700
vn 0.494600 -0.864200 -0.091700
vn 0.859400 -0.498900 -0.111500
vn 0.952100 0.000000 -0.305700
vn 0.822700 0.483600 -0.298700
vn 0.469100 0.837700 -0.279500
vn -0.013800 0.967300 -0.253200
vn -0.496600 0.837700 -0.227000
vn -0.850200 0.483600 -0.207700
vn -0.979600 0.000000 -0.200700
vn -0.850200 -0.483700 -0.207800
vn -0.496700 -0.837700 -0.227000
vn -0.013700 -0.967300 -0.253200
vn 0.469200 -0.837700 -0.279500
vn 0.822700 -0.483700 -0.298700
vn 0.843300 0.000000 -0.537500
vn 0.726700 0.435600 -0.531100
vn 0.408300 0.754500 -0.513700
vn -0.026600 0.871200 -0.490100
vn -0.461600 0.754500 -0.466500
vn -0.780000 0.435600 -0.449300
vn -0.896500 0.000000 -0.443000
vn -0.780000 -0.435600 -0.449300
vn -0.461600 -0.754500 -0.466500
vn -0.026600 -0.871200 -0.490100
vn 0.408300 -0.754500 -0.513800
vn 0.726700 -0.435600 -0.531100
vn 0.678700 0.000000 -0.734400
vn 0.582800 0.358700 -0.729100
vn 0.320400 0.621400 -0.714900
vn -0.037800 0.717600 -0.695400
vn -0.396100 0.621400 -0.676000
vn -0.658300 0.358800 -0.661700
vn -0.754300 0.000000 -0.656500
vn -0.658300 -0.358700 -0.661800
vn -0.396100 -0.621400 -0.676000
vn -0.037800 -0.717500 -0.695500
vn 0.320400 -0.621400 -0.714900
vn 0.582800 -0.358700 -0.729100
vn 0.468700 0.000000 -0.883300
vn 0.399700 0.257900 -0.879600
vn 0.211100 0.446800 -0.869400
vn -0.046500 0.515900 -0.855300
vn -0.304100 0.446800 -0.841400
vn -0.492700 0.258000 -0.831000
vn -0.561700 0.000000 -0.827300
vn -0.492700 -0.258000 -0.831000
vn -0.304100 -0.446800 -0.841300
vn -0.046500 -0.516000 -0.855300
vn 0.211100 -0.446800 -0.869300
vn 0.399700 -0.257900 -0.879600
vn 0.226500 0.000000 -0.974000
vn 0.189300 0.132100 -0.973000
vn 0.079800 0.241800 -0.967000
vn -0.052100 0.279000 -0.958900
vn -0.184100 0.241800 -0.952700
vn -0.293600 0.132200 -0.946700
vn -0.330700 0.000000 -0.943700
vn -0.293600 -0.132200 -0.946700
vn -0.184100 -0.241800 -0.952700
vn -0.052100 -0.279000 -0.958800
vn 0.079800 -0.241800 -0.967000
vn 0.189300 -0.132100 -0.973000
vn -0.054300 0.000000 -0.998500
usemtl wire_000000000
s 1
f 1//1 2//2 3//3
f 1//1 4//4 5//5
f 1//1 6//6 7//7
f 1//1 8//8 9//9
f 10//10 11//11 12//12 2//2
f 2//2 12//12 13//13 3//3
f 3//3 13//13 14//14 15//15
f 15//15 14//14 16//16 4//4
f 4//4 16//16 17//17 5//5
f 5//5 17//17 18//18 19//19
f 19//19 18//18 20//20 6//6
f 6//6 20//20 21//21 7//7
f 7//7 21//21 22//22 23//23
f 23//23 22//22 24//24 8//8
f 8//8 24//24 25//25 9//9
f 9//9 25//25 11//11 10//10
f 11//11 26//26 27//27 12//12
f 12//12 27//27 28//28 13//13
f 13//13 28//28 29//29 14//14
f 14//14 29//29 30//30 16//16
f 16//16 30//30 31//31 17//17
f 17//17 31//31 32//32 18//18
f 18//18 32//32 33//33 20//20
f 20//20 33//33 34//34 21//21
f 21//21 34//34 35//35 22//22
f 22//22 35//35 36//36 24//24
f 24//24 36//36 37//37 25//25
f 25//25 37//37 26//26 11//11
f 26//26 38//38 39//39 27//27
f 27//27 39//39 40//40 28//28
f 28//28 40//40 41//41 29//29
f 29//29 41//41 42//42 30//30
f 30//30 42//42 43//43 31//31
f 31//31 43//43 44//44 32//32
f 32//32 44//44 45//45 33//33
f 33//33 45//45 46//46 34//34
f 34//34 46//46 47//47 35//35
f 35//35 47//47 48//48 36//36
f 36//36 48//48 49//49 37//37
f 37//37 49//49 38//38 26//26
f 38//38 50//50 51//51 39//39
f 39//39 51//51 52//52 40//40
f 40//40 52//52 53//53 41//41
f 41//41 53//53 54//54 42//42
f 42//42 54//54 55//55 43//43
f 43//43 55//55 56//56 44//44
f 44//44 56//56 57//57 45//45
f 45//45 57//57 58//58 46//46
f 46//46 58//58 59//59 47//47
f 47//47 59//59 60//60 48//48
f 48//48 60//60 61//61 49//49
f 49//49 61//61 50//50 38//38
f 50//50 62//62 63//63 51//51
f 51//51 63//63 64//64 52//52
f 52//52 64//64 65//65 53//53
f 53//53 65//65 66//66 54//54
f 54//54 66//66 67//67 55//55
f 55//55 67//67 68//68 56//56
f 56//56 68//68 69//69 57//57
f 57//57 69//69 70//70 58//58
f 58//58 70//70 71//71 59//59
f 59//59 71//71 72//72 60//60
f 60//60 72//72 73//73 61//61
f 61//61 73//73 62//62 50//50
f 62//62 74//74 75//75 63//63
f 63//63 75//75 76//76 64//64
f 64//64 76//76 77//77 65//65
f 65//65 77//77 78//78 66//66
f 66//66 78//78 79//79 67//67
f 67//67 79//79 80//80 68//68
f 68//68 80//80 81//81 69//69
f 69//69 81//81 82//82 70//70
f 70//70 82//82 83//83 71//71
f 71//71 83//83 84//84 72//72
f 72//72 84//84 85//85 73//73
f 73//73 85//85 74//74 62//62
f 74//74 86//86 87//87 75//75
f 75//75 87//87 88//88 76//76
f 76//76 88//88 89//89 77//77
f 77//77 89//89 90//90 78//78
f 78//78 90//90 91//91 79//79
f 79//79 91//91 92//92 80//80
f 80//80 92//92 93//93 81//81
f 81//81 93//93 94//94 82//82
f 82//82 94//94 95//95 83//83
f 83//83 95//95 96//96 84//84
f 84//84 96//96 97//97 85//85
f 85//85 97//97 86//86 74//74
f 86//86 98//98 99//99 87//87
f 87//87 99//99 100//100 88//88
f 88//88 100//100 101//101 89//89
f 89//89 101//101 102//102 90//90
f 90//90 102//102 103//103 91//91
f 91//91 103//103 104//104 92//92
f 92//92 104//104 105//105 93//93
f 93//93 105//105 106//106 94//94
f 94//94 106//106 107//107 95//95
f 95//95 107//107 108//108 96//96
f 96//96 108//108 109//109 97//97
f 97//97 109//109 98//98 86//86
f 98//98 110//110 111//111 99//99
f 99//99 111//111 112//112 100//100
f 100//100 112//112 113//113 101//101
f 101//101 113//113 114//114 102//102
f 102//102 114//114 115//115 103//103
f 103//103 115//115 116//116 104//104
f 104//104 116//116 117//117 105//105
f 105//105 117//117 118//118 106//106
f 106//106 118//118 119//119 107//107
f 107//107 119//119 120//120 108//108
f 108//108 120//120 121//121 109//109
f 109//109 121//121 110//110 98//98
f 110//110 122//122 123//123 111//111
f 111//111 123//123 124//124 112//112
f 112//112 124//124 125//125 113//113
f 113//113 125//125 126//126 114//114
f 114//114 126//126 127//127 115//115
f 115//115 127//127 128//128 116//116
f 116//116 128//128 129//129 117//117
f 117//117 129//129 130//130 118//118
f 118//118 130//130 131//131 119//119
f 119//119 131//131 132//132 120//120
f 120//120 132//132 133//133 121//121
f 121//121 133//133 122//122 110//110
f 122//122 134//134 135//135 123//123
f 123//123 135//135 136//136 124//124
f 124//124 136//136 137//137 125//125
f 125//125 137//137 138//138 126//126
f 126//126 138//138 139//139 127//127
f 127//127 139//139 140//140 128//128
f 128//128 140//140 141//141 129//129
f 129//129 141//141 142//142 130//130
f 130//130 142//142 143//143 131//131
f 131//131 143//143 144//144 132//132
f 132//132 144//144 145//145 133//133
f 133//133 145//145 134//134 122//122
f 135//135 146//146 136//136
f 138//138 146//146 139//139
f 141//141 146//146 142//142
f 144//144 146//146 145//145
f 3//3 15//15 4//4 1//1
f 5//5 19//19 6//6 1//1
f 7//7 23//23 8//8 1//1
f 2//2 1//1 9//9 10//10
f 135//135 134//134 145//145 146//146
f 136//136 146//146 138//138 137//137
f 139//139 146//146 141//141 140//140
f 142//142 146//146 144//144 143//143
