# Blender v2.72 (sub 0) OBJ File: 'lamp_joined.blend'
# www.blender.org
mtllib center_neck_back.mtl
o center_neck_back_Luxo_by_RaccoonAnimator.015
v 0.625354 1.120571 -0.028240
v 0.329537 1.560531 -0.012163
v 0.332687 1.560531 0.045799
v 0.628504 1.120571 0.029723
v 0.324933 1.565916 -0.011913
v 0.328083 1.565916 0.046050
v 0.319395 1.569988 -0.011612
v 0.322545 1.569988 0.046351
v 0.313184 1.572697 -0.011274
v 0.316334 1.572697 0.046688
v 0.306562 1.573991 -0.010915
v 0.309713 1.573991 0.047048
v 0.299790 1.573822 -0.010546
v 0.302940 1.573822 0.047416
v 0.293130 1.572133 -0.010185
v 0.296280 1.572133 0.047778
v 0.286842 1.568878 -0.009843
v 0.289992 1.568878 0.048120
v 0.281465 1.564267 -0.009551
v 0.284615 1.564267 0.048412
v 0.277399 1.558721 -0.009330
v 0.280549 1.558721 0.048633
v 0.274694 1.552502 -0.009183
v 0.277844 1.552502 0.048780
v 0.273402 1.545870 -0.009112
v 0.276552 1.545870 0.048850
v 0.273573 1.539087 -0.009122
v 0.276723 1.539087 0.048841
v 0.275258 1.532417 -0.009213
v 0.278408 1.532417 0.048749
v 0.278508 1.526119 -0.009390
v 0.281658 1.526119 0.048573
v 0.574324 1.086159 -0.025466
v 0.577474 1.086159 0.032496
v 0.578929 1.080775 -0.025717
v 0.582079 1.080775 0.032246
v 0.584466 1.076702 -0.026018
v 0.587616 1.076702 0.031945
v 0.590678 1.073992 -0.026355
v 0.593828 1.073992 0.031607
v 0.597300 1.072698 -0.026715
v 0.600450 1.072698 0.031247
v 0.604072 1.072869 -0.027083
v 0.607222 1.072869 0.030879
v 0.610732 1.074557 -0.027445
v 0.613882 1.074557 0.030517
v 0.617021 1.077812 -0.027787
v 0.620171 1.077812 0.030176
v 0.622397 1.082423 -0.028079
v 0.625547 1.082423 0.029883
v 0.626463 1.087970 -0.028300
v 0.629613 1.087970 0.029662
v 0.629168 1.094189 -0.028447
v 0.632318 1.094189 0.029515
v 0.630461 1.100821 -0.028517
v 0.633611 1.100821 0.029445
v 0.630291 1.107603 -0.028508
v 0.633441 1.107603 0.029454
v 0.628604 1.114273 -0.028416
v 0.631754 1.114273 0.029546
vn 0.580600 0.366800 -0.726900
vn 0.534200 0.435700 -0.724400
vn 0.609500 0.435700 0.662200
vn 0.655900 0.366800 0.659700
vn 0.459500 0.535900 -0.708200
vn 0.533600 0.535900 0.654200
vn 0.326600 0.633200 -0.701700
vn 0.400800 0.633200 0.662200
vn 0.179500 0.697000 -0.694200
vn 0.253700 0.697000 0.670600
vn 0.024000 0.727400 -0.685800
vn 0.098100 0.727400 0.679100
vn -0.136300 0.723700 -0.676500
vn -0.062200 0.723700 0.687200
vn -0.295900 0.683600 -0.667200
vn -0.221900 0.683600 0.695300
vn -0.444800 0.606600 -0.658900
vn -0.370800 0.606600 0.703200
vn -0.572200 0.497300 -0.652100
vn -0.498100 0.497300 0.710300
vn -0.669300 0.364200 -0.647600
vn -0.595100 0.364200 0.716300
vn -0.733100 0.217000 -0.644600
vn -0.658900 0.217000 0.720200
vn -0.763500 0.061000 -0.642900
vn -0.689300 0.061000 0.721900
vn -0.759700 -0.099400 -0.642600
vn -0.685500 -0.099400 0.721200
vn -0.719600 -0.259200 -0.644200
vn -0.645600 -0.259200 0.718300
vn -0.655900 -0.366700 -0.659700
vn -0.580600 -0.366700 0.726900
vn -0.609500 -0.435800 -0.662200
vn -0.534200 -0.435800 0.724400
vn -0.533600 -0.535900 -0.654300
vn -0.459500 -0.535900 0.708200
vn -0.400900 -0.633100 -0.662100
vn -0.326700 -0.633100 0.701700
vn -0.253700 -0.697000 -0.670600
vn -0.179500 -0.697000 0.694200
vn -0.098100 -0.727400 -0.679100
vn -0.023900 -0.727400 0.685700
vn 0.062200 -0.723700 -0.687300
vn 0.136300 -0.723700 0.676500
vn 0.221800 -0.683600 -0.695300
vn 0.295800 -0.683600 0.667200
vn 0.370800 -0.606600 -0.703200
vn 0.444900 -0.606600 0.658900
vn 0.498200 -0.497200 -0.710300
vn 0.572200 -0.497200 0.652100
vn 0.595200 -0.364200 -0.716300
vn 0.669300 -0.364200 0.647600
vn 0.658900 -0.217000 -0.720200
vn 0.733100 -0.217000 0.644600
vn 0.689300 -0.061100 -0.721900
vn 0.763500 -0.061100 0.642900
vn 0.685500 0.099500 -0.721200
vn 0.759700 0.099500 0.642600
vn 0.645500 0.259300 -0.718300
vn 0.719600 0.259300 0.644200
usemtl wire_141007058
s 1
f 1//1 2//2 3//3 4//4
f 2//2 5//5 6//6 3//3
f 5//5 7//7 8//8 6//6
f 7//7 9//9 10//10 8//8
f 9//9 11//11 12//12 10//10
f 11//11 13//13 14//14 12//12
f 13//13 15//15 16//16 14//14
f 15//15 17//17 18//18 16//16
f 17//17 19//19 20//20 18//18
f 19//19 21//21 22//22 20//20
f 21//21 23//23 24//24 22//22
f 23//23 25//25 26//26 24//24
f 25//25 27//27 28//28 26//26
f 27//27 29//29 30//30 28//28
f 29//29 31//31 32//32 30//30
f 31//31 33//33 34//34 32//32
f 33//33 35//35 36//36 34//34
f 35//35 37//37 38//38 36//36
f 37//37 39//39 40//40 38//38
f 39//39 41//41 42//42 40//40
f 41//41 43//43 44//44 42//42
f 43//43 45//45 46//46 44//44
f 45//45 47//47 48//48 46//46
f 47//47 49//49 50//50 48//48
f 49//49 51//51 52//52 50//50
f 51//51 53//53 54//54 52//52
f 53//53 55//55 56//56 54//54
f 55//55 57//57 58//58 56//56
f 57//57 59//59 60//60 58//58
f 59//59 1//1 4//4 60//60
f 45//45 43//43 49//49 47//47
f 43//43 53//53 51//51 49//49
f 41//41 39//39 53//53 43//43
f 39//39 57//57 55//55 53//53
f 39//39 1//1 59//59 57//57
f 37//37 35//35 1//1 39//39
f 33//33 2//2 1//1 35//35
f 31//31 29//29 2//2 33//33
f 29//29 27//27 5//5 2//2
f 27//27 9//9 7//7 5//5
f 25//25 11//11 9//9 27//27
f 23//23 13//13 11//11 25//25
f 23//23 17//17 15//15 13//13
f 23//23 21//21 19//19 17//17
f 46//46 48//48 50//50 44//44
f 44//44 50//50 52//52 54//54
f 42//42 44//44 54//54 40//40
f 40//40 54//54 56//56 58//58
f 40//40 58//58 60//60 4//4
f 38//38 40//40 4//4 36//36
f 34//34 36//36 4//4 3//3
f 32//32 34//34 3//3 30//30
f 30//30 3//3 6//6 28//28
f 28//28 6//6 8//8 10//10
f 26//26 28//28 10//10 12//12
f 24//24 26//26 12//12 14//14
f 24//24 14//14 16//16 18//18
f 24//24 18//18 20//20 22//22
