# Blender v2.72 (sub 0) OBJ File: 'lamp_joined.blend'
# www.blender.org
mtllib center_pin_mid.mtl
o center_pin_mid_Luxo_by_RaccoonAnimator.025
v 0.218699 0.772073 0.237132
v 0.222650 0.774376 0.236308
v 0.220965 0.776063 0.236400
v 0.216364 0.776063 0.236650
v 0.214681 0.774376 0.236741
v 0.214681 0.769768 0.236741
v 0.216364 0.768083 0.236650
v 0.220965 0.768083 0.236400
v 0.222650 0.769768 0.236308
v 0.226266 0.776523 0.234331
v 0.223266 0.772073 0.236275
v 0.227457 0.772073 0.234267
v 0.223012 0.779781 0.234508
v 0.218569 0.780974 0.234750
v 0.218666 0.776681 0.236525
v 0.214125 0.779781 0.234991
v 0.210872 0.776523 0.235168
v 0.209681 0.772073 0.235233
v 0.214064 0.772073 0.236775
v 0.210872 0.767622 0.235168
v 0.214125 0.764365 0.234991
v 0.218569 0.763172 0.234750
v 0.218666 0.767465 0.236525
v 0.223012 0.764365 0.234508
v 0.226266 0.767622 0.234331
v 0.229299 0.778366 0.231333
v 0.230984 0.772073 0.231242
v 0.224699 0.782973 0.231583
v 0.218416 0.784660 0.231925
v 0.212131 0.782973 0.232266
v 0.207530 0.778366 0.232516
v 0.205847 0.772073 0.232608
v 0.207530 0.765779 0.232516
v 0.212131 0.761171 0.232266
v 0.218416 0.759484 0.231925
v 0.224699 0.761171 0.231583
v 0.229299 0.765779 0.231333
v 0.231547 0.779781 0.227519
v 0.233609 0.772073 0.227407
v 0.225912 0.785424 0.227825
v 0.218215 0.787490 0.228243
v 0.210519 0.785424 0.228661
v 0.204884 0.779781 0.228968
v 0.202821 0.772073 0.229080
v 0.204884 0.764365 0.228968
v 0.210519 0.758722 0.228661
v 0.218215 0.756656 0.228243
v 0.225912 0.758722 0.227825
v 0.231547 0.764365 0.227519
v 0.232853 0.780670 0.223148
v 0.235152 0.772073 0.223023
v 0.226567 0.786965 0.223490
v 0.217982 0.789268 0.223956
v 0.209398 0.786965 0.224423
v 0.203112 0.780670 0.224765
v 0.200813 0.772073 0.224890
v 0.203112 0.763476 0.224765
v 0.209398 0.757181 0.224423
v 0.217982 0.754878 0.223956
v 0.226567 0.757181 0.223490
v 0.232853 0.763476 0.223148
v 0.233126 0.780974 0.218519
v 0.235507 0.772073 0.218389
v 0.226620 0.787490 0.218872
v 0.217732 0.789874 0.219355
v 0.208845 0.787490 0.219838
v 0.202338 0.780974 0.220192
v 0.199957 0.772073 0.220321
v 0.202338 0.763172 0.220192
v 0.208845 0.756656 0.219838
v 0.217732 0.754271 0.219355
v 0.226620 0.756656 0.218872
v 0.233126 0.763172 0.218519
v 0.211844 0.780974 -0.173076
v 0.214225 0.772073 -0.173206
v 0.205338 0.787490 -0.172723
v 0.196450 0.789874 -0.172240
v 0.187563 0.787490 -0.171757
v 0.181056 0.780974 -0.171403
v 0.178675 0.772073 -0.171274
v 0.181056 0.763172 -0.171403
v 0.187563 0.756656 -0.171757
v 0.196450 0.754271 -0.172240
v 0.205338 0.756656 -0.172723
v 0.211844 0.763172 -0.173076
v 0.211071 0.780670 -0.177648
v 0.213370 0.772073 -0.177773
v 0.204785 0.786965 -0.177307
v 0.196200 0.789268 -0.176840
v 0.187616 0.786965 -0.176374
v 0.181330 0.780670 -0.176032
v 0.179031 0.772073 -0.175907
v 0.181330 0.763476 -0.176032
v 0.187616 0.757181 -0.176374
v 0.196200 0.754878 -0.176840
v 0.204785 0.757181 -0.177307
v 0.211071 0.763476 -0.177648
v 0.209299 0.779781 -0.181852
v 0.211361 0.772073 -0.181964
v 0.203664 0.785424 -0.181546
v 0.195967 0.787490 -0.181128
v 0.188271 0.785424 -0.180709
v 0.182636 0.779781 -0.180403
v 0.180573 0.772073 -0.180291
v 0.182636 0.764365 -0.180403
v 0.188271 0.758722 -0.180709
v 0.195967 0.756656 -0.181128
v 0.203664 0.758722 -0.181546
v 0.209299 0.764365 -0.181852
v 0.206651 0.778366 -0.185400
v 0.208336 0.772073 -0.185491
v 0.202051 0.782973 -0.185150
v 0.195767 0.784660 -0.184808
v 0.189483 0.782973 -0.184467
v 0.184881 0.778366 -0.184217
v 0.183199 0.772073 -0.184125
v 0.184881 0.765779 -0.184217
v 0.189483 0.761171 -0.184467
v 0.195767 0.759484 -0.184808
v 0.202051 0.761171 -0.185150
v 0.206651 0.765779 -0.185400
v 0.203311 0.776523 -0.188051
v 0.204502 0.772073 -0.188116
v 0.200057 0.779781 -0.187875
v 0.195614 0.780974 -0.187633
v 0.191169 0.779781 -0.187392
v 0.187917 0.776523 -0.187215
v 0.186726 0.772073 -0.187150
v 0.187917 0.767622 -0.187215
v 0.191169 0.764365 -0.187392
v 0.195614 0.763172 -0.187633
v 0.200057 0.764365 -0.187875
v 0.203311 0.767622 -0.188051
v 0.199502 0.774376 -0.189625
v 0.200118 0.772073 -0.189658
v 0.197817 0.776063 -0.189533
v 0.195517 0.776681 -0.189408
v 0.193216 0.776063 -0.189283
v 0.191533 0.774376 -0.189192
v 0.190916 0.772073 -0.189158
v 0.191533 0.769768 -0.189192
v 0.193216 0.768083 -0.189283
v 0.195517 0.767465 -0.189408
v 0.197817 0.768083 -0.189533
v 0.199502 0.769768 -0.189625
v 0.195484 0.772073 -0.190016
vn 0.054300 0.000000 0.998500
vn 0.293600 0.132100 0.946700
vn 0.184100 0.241800 0.952700
vn -0.079900 0.241800 0.967000
vn -0.189300 0.132100 0.973000
vn -0.189300 -0.132200 0.973000
vn -0.079800 -0.241800 0.967000
vn 0.184100 -0.241800 0.952700
vn 0.293600 -0.132200 0.946700
vn 0.492600 0.258000 0.831100
vn 0.330700 0.000000 0.943700
vn 0.561700 0.000000 0.827400
vn 0.304100 0.446800 0.841300
vn 0.046500 0.515900 0.855300
vn 0.052100 0.279000 0.958900
vn -0.211100 0.446800 0.869400
vn -0.399600 0.257900 0.879600
vn -0.468600 0.000000 0.883400
vn -0.226500 0.000000 0.974000
vn -0.399600 -0.257900 0.879600
vn -0.211100 -0.446700 0.869400
vn 0.046500 -0.515800 0.855400
vn 0.052100 -0.279000 0.958900
vn 0.304100 -0.446700 0.841400
vn 0.492600 -0.258000 0.831100
vn 0.658300 0.358800 0.661700
vn 0.754300 0.000000 0.656500
vn 0.396100 0.621400 0.676000
vn 0.037800 0.717600 0.695400
vn -0.320500 0.621400 0.714900
vn -0.582800 0.358800 0.729100
vn -0.678700 0.000000 0.734400
vn -0.582800 -0.358800 0.729100
vn -0.320500 -0.621500 0.714800
vn 0.037800 -0.717600 0.695400
vn 0.396100 -0.621400 0.675900
vn 0.658300 -0.358800 0.661700
vn 0.780000 0.435600 0.449300
vn 0.896500 0.000000 0.443000
vn 0.461600 0.754400 0.466600
vn 0.026600 0.871200 0.490200
vn -0.408300 0.754400 0.513800
vn -0.726700 0.435600 0.531100
vn -0.843300 0.000000 0.537400
vn -0.726700 -0.435600 0.531100
vn -0.408300 -0.754500 0.513700
vn 0.026600 -0.871200 0.490100
vn 0.461600 -0.754400 0.466500
vn 0.780000 -0.435600 0.449300
vn 0.850200 0.483600 0.207800
vn 0.979600 0.000000 0.200700
vn 0.496700 0.837700 0.227000
vn 0.013700 0.967300 0.253200
vn -0.469100 0.837700 0.279500
vn -0.822700 0.483600 0.298700
vn -0.952100 0.000000 0.305700
vn -0.822700 -0.483600 0.298700
vn -0.469100 -0.837700 0.279500
vn 0.013800 -0.967300 0.253200
vn 0.496700 -0.837700 0.227000
vn 0.850200 -0.483600 0.207800
vn 0.866500 0.498900 0.017600
vn 0.999900 0.000000 0.010300
vn 0.501700 0.864200 0.037500
vn 0.003500 0.997900 0.064600
vn -0.494700 0.864200 0.091700
vn -0.859400 0.498900 0.111500
vn -0.992900 0.000000 0.118700
vn -0.859400 -0.498900 0.111500
vn -0.494700 -0.864200 0.091700
vn 0.003500 -0.997900 0.064600
vn 0.501800 -0.864200 0.037500
vn 0.866500 -0.498900 0.017600
vn 0.859400 0.498900 -0.111500
vn 0.992900 0.000000 -0.118700
vn 0.494700 0.864200 -0.091700
vn -0.003500 0.997900 -0.064600
vn -0.501700 0.864200 -0.037500
vn -0.866400 0.498900 -0.017700
vn -0.999900 0.000000 -0.010500
vn -0.866400 -0.498900 -0.017700
vn -0.501700 -0.864200 -0.037500
vn -0.003500 -0.997900 -0.064600
vn 0.494700 -0.864200 -0.091700
vn 0.859400 -0.498900 -0.111500
vn 0.822700 0.483600 -0.298700
vn 0.952100 0.000000 -0.305600
vn 0.469100 0.837700 -0.279500
vn -0.013700 0.967300 -0.253200
vn -0.496700 0.837700 -0.227000
vn -0.850200 0.483600 -0.207800
vn -0.979600 0.000000 -0.200700
vn -0.850200 -0.483600 -0.207800
vn -0.496700 -0.837700 -0.227000
vn -0.013700 -0.967300 -0.253200
vn 0.469100 -0.837700 -0.279500
vn 0.822700 -0.483600 -0.298700
vn 0.726700 0.435600 -0.531200
vn 0.843200 0.000000 -0.537600
vn 0.408300 0.754400 -0.513900
vn -0.026600 0.871200 -0.490200
vn -0.461600 0.754400 -0.466600
vn -0.780000 0.435600 -0.449300
vn -0.896500 0.000000 -0.442900
vn -0.780000 -0.435600 -0.449200
vn -0.461600 -0.754500 -0.466500
vn -0.026600 -0.871200 -0.490100
vn 0.408300 -0.754400 -0.513800
vn 0.726700 -0.435600 -0.531200
vn 0.582700 0.358800 -0.729200
vn 0.678700 0.000000 -0.734400
vn 0.320400 0.621400 -0.715000
vn -0.037800 0.717500 -0.695500
vn -0.396100 0.621400 -0.676000
vn -0.658300 0.358700 -0.661700
vn -0.754300 0.000000 -0.656500
vn -0.658300 -0.358700 -0.661700
vn -0.396100 -0.621400 -0.676000
vn -0.037800 -0.717600 -0.695400
vn 0.320500 -0.621400 -0.714900
vn 0.582700 -0.358800 -0.729200
vn 0.399600 0.258000 -0.879600
vn 0.468700 0.000000 -0.883300
vn 0.211100 0.446800 -0.869400
vn -0.046400 0.515900 -0.855300
vn -0.304100 0.446800 -0.841300
vn -0.492600 0.257900 -0.831100
vn -0.561600 0.000000 -0.827400
vn -0.492600 -0.257900 -0.831100
vn -0.304100 -0.446700 -0.841400
vn -0.046400 -0.515800 -0.855400
vn 0.211100 -0.446700 -0.869400
vn 0.399600 -0.258000 -0.879600
vn 0.189300 0.132100 -0.973000
vn 0.226500 0.000000 -0.974000
vn 0.079800 0.241800 -0.967000
vn -0.052100 0.279000 -0.958900
vn -0.184200 0.241800 -0.952700
vn -0.293600 0.132100 -0.946700
vn -0.330700 0.000000 -0.943700
vn -0.293600 -0.132200 -0.946700
vn -0.184100 -0.241800 -0.952700
vn -0.052100 -0.279000 -0.958900
vn 0.079700 -0.241800 -0.967000
vn 0.189300 -0.132200 -0.973000
vn -0.054200 0.000000 -0.998500
usemtl wire_135110008
s 1
f 1//1 2//2 3//3
f 1//1 4//4 5//5
f 1//1 6//6 7//7
f 1//1 8//8 9//9
f 10//10 2//2 11//11 12//12
f 13//13 3//3 2//2 10//10
f 14//14 15//15 3//3 13//13
f 16//16 4//4 15//15 14//14
f 17//17 5//5 4//4 16//16
f 18//18 19//19 5//5 17//17
f 20//20 6//6 19//19 18//18
f 21//21 7//7 6//6 20//20
f 22//22 23//23 7//7 21//21
f 24//24 8//8 23//23 22//22
f 25//25 9//9 8//8 24//24
f 12//12 11//11 9//9 25//25
f 26//26 10//10 12//12 27//27
f 28//28 13//13 10//10 26//26
f 29//29 14//14 13//13 28//28
f 30//30 16//16 14//14 29//29
f 31//31 17//17 16//16 30//30
f 32//32 18//18 17//17 31//31
f 33//33 20//20 18//18 32//32
f 34//34 21//21 20//20 33//33
f 35//35 22//22 21//21 34//34
f 36//36 24//24 22//22 35//35
f 37//37 25//25 24//24 36//36
f 27//27 12//12 25//25 37//37
f 38//38 26//26 27//27 39//39
f 40//40 28//28 26//26 38//38
f 41//41 29//29 28//28 40//40
f 42//42 30//30 29//29 41//41
f 43//43 31//31 30//30 42//42
f 44//44 32//32 31//31 43//43
f 45//45 33//33 32//32 44//44
f 46//46 34//34 33//33 45//45
f 47//47 35//35 34//34 46//46
f 48//48 36//36 35//35 47//47
f 49//49 37//37 36//36 48//48
f 39//39 27//27 37//37 49//49
f 50//50 38//38 39//39 51//51
f 52//52 40//40 38//38 50//50
f 53//53 41//41 40//40 52//52
f 54//54 42//42 41//41 53//53
f 55//55 43//43 42//42 54//54
f 56//56 44//44 43//43 55//55
f 57//57 45//45 44//44 56//56
f 58//58 46//46 45//45 57//57
f 59//59 47//47 46//46 58//58
f 60//60 48//48 47//47 59//59
f 61//61 49//49 48//48 60//60
f 51//51 39//39 49//49 61//61
f 62//62 50//50 51//51 63//63
f 64//64 52//52 50//50 62//62
f 65//65 53//53 52//52 64//64
f 66//66 54//54 53//53 65//65
f 67//67 55//55 54//54 66//66
f 68//68 56//56 55//55 67//67
f 69//69 57//57 56//56 68//68
f 70//70 58//58 57//57 69//69
f 71//71 59//59 58//58 70//70
f 72//72 60//60 59//59 71//71
f 73//73 61//61 60//60 72//72
f 63//63 51//51 61//61 73//73
f 74//74 62//62 63//63 75//75
f 76//76 64//64 62//62 74//74
f 77//77 65//65 64//64 76//76
f 78//78 66//66 65//65 77//77
f 79//79 67//67 66//66 78//78
f 80//80 68//68 67//67 79//79
f 81//81 69//69 68//68 80//80
f 82//82 70//70 69//69 81//81
f 83//83 71//71 70//70 82//82
f 84//84 72//72 71//71 83//83
f 85//85 73//73 72//72 84//84
f 75//75 63//63 73//73 85//85
f 86//86 74//74 75//75 87//87
f 88//88 76//76 74//74 86//86
f 89//89 77//77 76//76 88//88
f 90//90 78//78 77//77 89//89
f 91//91 79//79 78//78 90//90
f 92//92 80//80 79//79 91//91
f 93//93 81//81 80//80 92//92
f 94//94 82//82 81//81 93//93
f 95//95 83//83 82//82 94//94
f 96//96 84//84 83//83 95//95
f 97//97 85//85 84//84 96//96
f 87//87 75//75 85//85 97//97
f 98//98 86//86 87//87 99//99
f 100//100 88//88 86//86 98//98
f 101//101 89//89 88//88 100//100
f 102//102 90//90 89//89 101//101
f 103//103 91//91 90//90 102//102
f 104//104 92//92 91//91 103//103
f 105//105 93//93 92//92 104//104
f 106//106 94//94 93//93 105//105
f 107//107 95//95 94//94 106//106
f 108//108 96//96 95//95 107//107
f 109//109 97//97 96//96 108//108
f 99//99 87//87 97//97 109//109
f 110//110 98//98 99//99 111//111
f 112//112 100//100 98//98 110//110
f 113//113 101//101 100//100 112//112
f 114//114 102//102 101//101 113//113
f 115//115 103//103 102//102 114//114
f 116//116 104//104 103//103 115//115
f 117//117 105//105 104//104 116//116
f 118//118 106//106 105//105 117//117
f 119//119 107//107 106//106 118//118
f 120//120 108//108 107//107 119//119
f 121//121 109//109 108//108 120//120
f 111//111 99//99 109//109 121//121
f 122//122 110//110 111//111 123//123
f 124//124 112//112 110//110 122//122
f 125//125 113//113 112//112 124//124
f 126//126 114//114 113//113 125//125
f 127//127 115//115 114//114 126//126
f 128//128 116//116 115//115 127//127
f 129//129 117//117 116//116 128//128
f 130//130 118//118 117//117 129//129
f 131//131 119//119 118//118 130//130
f 132//132 120//120 119//119 131//131
f 133//133 121//121 120//120 132//132
f 123//123 111//111 121//121 133//133
f 134//134 122//122 123//123 135//135
f 136//136 124//124 122//122 134//134
f 137//137 125//125 124//124 136//136
f 138//138 126//126 125//125 137//137
f 139//139 127//127 126//126 138//138
f 140//140 128//128 127//127 139//139
f 141//141 129//129 128//128 140//140
f 142//142 130//130 129//129 141//141
f 143//143 131//131 130//130 142//142
f 144//144 132//132 131//131 143//143
f 145//145 133//133 132//132 144//144
f 135//135 123//123 133//133 145//145
f 134//134 146//146 136//136
f 138//138 146//146 139//139
f 141//141 146//146 142//142
f 144//144 146//146 145//145
f 3//3 15//15 4//4 1//1
f 5//5 19//19 6//6 1//1
f 7//7 23//23 8//8 1//1
f 2//2 1//1 9//9 11//11
f 136//136 146//146 138//138 137//137
f 139//139 146//146 141//141 140//140
f 142//142 146//146 144//144 143//143
f 134//134 135//135 145//145 146//146
