# Blender v2.72 (sub 0) OBJ File: 'lamp_joined.blend'
# www.blender.org
mtllib center_pin_back.mtl
o center_pin_back_Luxo_by_RaccoonAnimator.026
v 0.631458 0.718941 0.099323
v 0.633725 0.722930 0.098593
v 0.631425 0.723547 0.098718
v 0.627439 0.721244 0.098934
v 0.626824 0.718941 0.098968
v 0.639026 0.723390 0.096523
v 0.635409 0.721244 0.098501
v 0.636025 0.718941 0.098468
v 0.640215 0.718941 0.096458
v 0.635771 0.726649 0.096700
v 0.631329 0.727840 0.096941
v 0.626883 0.726649 0.097183
v 0.629124 0.722930 0.098843
v 0.623631 0.723390 0.097360
v 0.622440 0.718941 0.097424
v 0.623631 0.714489 0.097360
v 0.627439 0.716636 0.098934
v 0.626883 0.711232 0.097183
v 0.629124 0.714949 0.098843
v 0.631329 0.710039 0.096941
v 0.631425 0.714333 0.098718
v 0.635771 0.711232 0.096700
v 0.633725 0.714949 0.098593
v 0.639026 0.714489 0.096523
v 0.635409 0.716636 0.098501
v 0.642059 0.725233 0.093525
v 0.643744 0.718941 0.093434
v 0.637458 0.729841 0.093775
v 0.631175 0.731528 0.094117
v 0.624890 0.729841 0.094458
v 0.620289 0.725233 0.094708
v 0.618605 0.718941 0.094800
v 0.620289 0.712646 0.094708
v 0.624890 0.708039 0.094458
v 0.631175 0.706352 0.094117
v 0.637458 0.708039 0.093775
v 0.642059 0.712646 0.093525
v 0.644307 0.726649 0.089709
v 0.646369 0.718941 0.089597
v 0.638672 0.732292 0.090016
v 0.630975 0.734357 0.090434
v 0.623278 0.732292 0.090852
v 0.617642 0.726649 0.091159
v 0.615581 0.718941 0.091271
v 0.617642 0.711232 0.091159
v 0.623278 0.705588 0.090852
v 0.630975 0.703524 0.090434
v 0.638672 0.705588 0.090016
v 0.644307 0.711232 0.089709
v 0.645610 0.727538 0.085340
v 0.647911 0.718941 0.085215
v 0.639327 0.733831 0.085682
v 0.630742 0.736135 0.086148
v 0.622157 0.733831 0.086615
v 0.615872 0.727538 0.086956
v 0.613571 0.718941 0.087082
v 0.615872 0.710343 0.086956
v 0.622157 0.704049 0.086615
v 0.630742 0.701744 0.086148
v 0.639327 0.704049 0.085682
v 0.645610 0.710343 0.085340
v 0.645886 0.727840 0.080712
v 0.648266 0.718941 0.080582
v 0.639378 0.734357 0.081065
v 0.630492 0.736741 0.081548
v 0.621603 0.734357 0.082031
v 0.615098 0.727840 0.082385
v 0.612715 0.718941 0.082514
v 0.615098 0.710039 0.082385
v 0.621603 0.703524 0.082031
v 0.630492 0.701138 0.081548
v 0.639378 0.703524 0.081065
v 0.645886 0.710039 0.080712
v 0.637107 0.727840 -0.080811
v 0.639488 0.718941 -0.080940
v 0.630600 0.734357 -0.080457
v 0.621714 0.736741 -0.079975
v 0.612825 0.734357 -0.079491
v 0.606320 0.727840 -0.079138
v 0.603937 0.718941 -0.079008
v 0.606320 0.710039 -0.079138
v 0.612825 0.703524 -0.079491
v 0.621714 0.701138 -0.079975
v 0.630600 0.703524 -0.080457
v 0.637107 0.710039 -0.080811
v 0.636332 0.727538 -0.085383
v 0.638633 0.718941 -0.085508
v 0.630048 0.733831 -0.085041
v 0.621464 0.736135 -0.084575
v 0.612879 0.733831 -0.084108
v 0.606594 0.727538 -0.083767
v 0.604292 0.718941 -0.083641
v 0.606594 0.710343 -0.083767
v 0.612879 0.704049 -0.084108
v 0.621464 0.701744 -0.084575
v 0.630048 0.704049 -0.085041
v 0.636332 0.710343 -0.085383
v 0.634562 0.726649 -0.089587
v 0.636624 0.718941 -0.089699
v 0.628928 0.732292 -0.089281
v 0.621231 0.734357 -0.088862
v 0.613533 0.732292 -0.088444
v 0.607898 0.726649 -0.088138
v 0.605837 0.718941 -0.088026
v 0.607898 0.711232 -0.088138
v 0.613533 0.705588 -0.088444
v 0.621231 0.703524 -0.088862
v 0.628928 0.705588 -0.089281
v 0.634562 0.711232 -0.089587
v 0.631915 0.725233 -0.093135
v 0.633599 0.718941 -0.093227
v 0.627314 0.729841 -0.092885
v 0.621031 0.731528 -0.092544
v 0.614745 0.729841 -0.092202
v 0.610145 0.725233 -0.091952
v 0.608460 0.718941 -0.091861
v 0.610145 0.712646 -0.091952
v 0.614745 0.708039 -0.092202
v 0.621031 0.706352 -0.092544
v 0.627314 0.708039 -0.092885
v 0.631915 0.712646 -0.093135
v 0.628574 0.723390 -0.095786
v 0.629763 0.718941 -0.095851
v 0.625320 0.726649 -0.095609
v 0.620878 0.727840 -0.095368
v 0.616432 0.726649 -0.095126
v 0.613180 0.723390 -0.094949
v 0.611989 0.718941 -0.094885
v 0.613180 0.714489 -0.094949
v 0.616432 0.711232 -0.095126
v 0.620878 0.710039 -0.095368
v 0.625320 0.711232 -0.095609
v 0.628574 0.714489 -0.095786
v 0.624764 0.721244 -0.097362
v 0.625380 0.718941 -0.097395
v 0.623080 0.722930 -0.097270
v 0.620781 0.723547 -0.097145
v 0.618479 0.722930 -0.097020
v 0.616795 0.721244 -0.096929
v 0.616180 0.718941 -0.096895
v 0.616795 0.716636 -0.096929
v 0.618479 0.714949 -0.097020
v 0.620781 0.714333 -0.097145
v 0.623080 0.714949 -0.097270
v 0.624764 0.716636 -0.097362
v 0.620748 0.718941 -0.097750
vn 0.054300 0.000000 0.998500
vn 0.195200 0.235300 0.952100
vn 0.045700 0.275400 0.960200
vn -0.182800 0.143300 0.972600
vn -0.222800 -0.006400 0.974800
vn 0.492700 0.258000 0.831100
vn 0.293300 0.139500 0.945800
vn 0.323800 0.000000 0.946100
vn 0.561700 0.000000 0.827400
vn 0.304100 0.446900 0.841300
vn 0.046500 0.515900 0.855300
vn -0.211100 0.446900 0.869300
vn -0.087100 0.241600 0.966400
vn -0.399700 0.258000 0.879600
vn -0.468700 0.000000 0.883300
vn -0.399700 -0.258000 0.879600
vn -0.189200 -0.139400 0.972000
vn -0.211100 -0.446900 0.869300
vn -0.083500 -0.235600 0.968200
vn 0.046500 -0.515900 0.855300
vn 0.052100 -0.278900 0.958900
vn 0.304100 -0.446900 0.841300
vn 0.188000 -0.235600 0.953500
vn 0.492700 -0.258000 0.831100
vn 0.293300 -0.139400 0.945800
vn 0.658300 0.358800 0.661700
vn 0.754400 0.000000 0.656500
vn 0.396000 0.621400 0.676000
vn 0.037800 0.717600 0.695400
vn -0.320500 0.621400 0.714900
vn -0.582800 0.358800 0.729100
vn -0.678800 0.000000 0.734300
vn -0.582800 -0.358800 0.729100
vn -0.320500 -0.621500 0.714800
vn 0.037800 -0.717600 0.695400
vn 0.396000 -0.621500 0.675900
vn 0.658300 -0.358800 0.661700
vn 0.780000 0.435600 0.449200
vn 0.896600 0.000000 0.442800
vn 0.461600 0.754500 0.466500
vn 0.026600 0.871200 0.490100
vn -0.408300 0.754500 0.513700
vn -0.726700 0.435600 0.531100
vn -0.843300 0.000000 0.537400
vn -0.726800 -0.435600 0.531100
vn -0.408300 -0.754500 0.513700
vn 0.026600 -0.871200 0.490200
vn 0.461600 -0.754500 0.466500
vn 0.780100 -0.435600 0.449200
vn 0.850200 0.483700 0.207700
vn 0.979600 0.000000 0.200700
vn 0.496700 0.837700 0.226900
vn 0.013800 0.967300 0.253200
vn -0.469100 0.837700 0.279400
vn -0.822700 0.483700 0.298700
vn -0.952100 0.000000 0.305700
vn -0.822700 -0.483700 0.298700
vn -0.469200 -0.837700 0.279500
vn 0.013800 -0.967300 0.253200
vn 0.496700 -0.837700 0.226900
vn 0.850200 -0.483600 0.207700
vn 0.866500 0.498900 0.017700
vn 0.999900 0.000000 0.010500
vn 0.501700 0.864200 0.037500
vn 0.003500 0.997900 0.064600
vn -0.494700 0.864200 0.091700
vn -0.859400 0.498900 0.111500
vn -0.992900 0.000000 0.118700
vn -0.859400 -0.499000 0.111500
vn -0.494700 -0.864200 0.091700
vn 0.003500 -0.997900 0.064500
vn 0.501700 -0.864200 0.037500
vn 0.866400 -0.498900 0.017700
vn 0.859400 0.498900 -0.111500
vn 0.992900 0.000000 -0.118700
vn 0.494600 0.864200 -0.091600
vn -0.003400 0.997900 -0.064600
vn -0.501700 0.864200 -0.037500
vn -0.866400 0.498900 -0.017700
vn -0.999900 0.000000 -0.010400
vn -0.866400 -0.499000 -0.017700
vn -0.501800 -0.864200 -0.037500
vn -0.003400 -0.997900 -0.064500
vn 0.494700 -0.864200 -0.091600
vn 0.859400 -0.498900 -0.111500
vn 0.822700 0.483700 -0.298500
vn 0.952100 0.000000 -0.305600
vn 0.469200 0.837700 -0.279300
vn -0.013700 0.967300 -0.253100
vn -0.496700 0.837700 -0.226900
vn -0.850200 0.483700 -0.207600
vn -0.979600 0.000000 -0.200700
vn -0.850200 -0.483700 -0.207700
vn -0.496700 -0.837700 -0.226900
vn -0.013700 -0.967300 -0.253200
vn 0.469300 -0.837700 -0.279400
vn 0.822700 -0.483600 -0.298600
vn 0.726700 0.435600 -0.531100
vn 0.843300 0.000000 -0.537400
vn 0.408300 0.754500 -0.513700
vn -0.026600 0.871200 -0.490100
vn -0.461600 0.754500 -0.466400
vn -0.780000 0.435600 -0.449200
vn -0.896600 0.000000 -0.442900
vn -0.780100 -0.435600 -0.449100
vn -0.461600 -0.754500 -0.466400
vn -0.026600 -0.871200 -0.490200
vn 0.408300 -0.754500 -0.513800
vn 0.726800 -0.435600 -0.531000
vn 0.582600 0.358700 -0.729200
vn 0.678600 0.000000 -0.734400
vn 0.320400 0.621400 -0.715000
vn -0.037800 0.717500 -0.695500
vn -0.396000 0.621400 -0.676000
vn -0.658300 0.358700 -0.661800
vn -0.754300 0.000000 -0.656500
vn -0.658300 -0.358700 -0.661700
vn -0.396000 -0.621400 -0.676000
vn -0.037800 -0.717500 -0.695500
vn 0.320400 -0.621400 -0.715000
vn 0.582700 -0.358700 -0.729200
vn 0.399700 0.258000 -0.879600
vn 0.468700 0.000000 -0.883400
vn 0.211100 0.446900 -0.869300
vn -0.046400 0.515900 -0.855300
vn -0.304100 0.446800 -0.841300
vn -0.492700 0.258000 -0.831100
vn -0.561700 0.000000 -0.827300
vn -0.492700 -0.258000 -0.831100
vn -0.304100 -0.446800 -0.841300
vn -0.046400 -0.515900 -0.855300
vn 0.211100 -0.446800 -0.869300
vn 0.399700 -0.258000 -0.879600
vn 0.189200 0.139500 -0.972000
vn 0.219500 0.000000 -0.975600
vn 0.090900 0.235400 -0.967600
vn -0.058500 0.275500 -0.959500
vn -0.191400 0.241700 -0.951300
vn -0.287300 0.143300 -0.947100
vn -0.327200 -0.006400 -0.944900
vn -0.293500 -0.139500 -0.945700
vn -0.188000 -0.235700 -0.953500
vn -0.052100 -0.279000 -0.958900
vn 0.083600 -0.235700 -0.968200
vn 0.189200 -0.139500 -0.972000
vn -0.054200 0.000000 -0.998500
usemtl wire_000000000
s 1
f 1//1 2//2 3//3
f 1//1 4//4 5//5
f 6//6 7//7 8//8 9//9
f 10//10 2//2 7//7 6//6
f 11//11 3//3 2//2 10//10
f 12//12 13//13 3//3 11//11
f 14//14 4//4 13//13 12//12
f 15//15 5//5 4//4 14//14
f 16//16 17//17 5//5 15//15
f 18//18 19//19 17//17 16//16
f 20//20 21//21 19//19 18//18
f 22//22 23//23 21//21 20//20
f 24//24 25//25 23//23 22//22
f 9//9 8//8 25//25 24//24
f 26//26 6//6 9//9 27//27
f 28//28 10//10 6//6 26//26
f 29//29 11//11 10//10 28//28
f 30//30 12//12 11//11 29//29
f 31//31 14//14 12//12 30//30
f 32//32 15//15 14//14 31//31
f 33//33 16//16 15//15 32//32
f 34//34 18//18 16//16 33//33
f 35//35 20//20 18//18 34//34
f 36//36 22//22 20//20 35//35
f 37//37 24//24 22//22 36//36
f 27//27 9//9 24//24 37//37
f 38//38 26//26 27//27 39//39
f 40//40 28//28 26//26 38//38
f 41//41 29//29 28//28 40//40
f 42//42 30//30 29//29 41//41
f 43//43 31//31 30//30 42//42
f 44//44 32//32 31//31 43//43
f 45//45 33//33 32//32 44//44
f 46//46 34//34 33//33 45//45
f 47//47 35//35 34//34 46//46
f 48//48 36//36 35//35 47//47
f 49//49 37//37 36//36 48//48
f 39//39 27//27 37//37 49//49
f 50//50 38//38 39//39 51//51
f 52//52 40//40 38//38 50//50
f 53//53 41//41 40//40 52//52
f 54//54 42//42 41//41 53//53
f 55//55 43//43 42//42 54//54
f 56//56 44//44 43//43 55//55
f 57//57 45//45 44//44 56//56
f 58//58 46//46 45//45 57//57
f 59//59 47//47 46//46 58//58
f 60//60 48//48 47//47 59//59
f 61//61 49//49 48//48 60//60
f 51//51 39//39 49//49 61//61
f 62//62 50//50 51//51 63//63
f 64//64 52//52 50//50 62//62
f 65//65 53//53 52//52 64//64
f 66//66 54//54 53//53 65//65
f 67//67 55//55 54//54 66//66
f 68//68 56//56 55//55 67//67
f 69//69 57//57 56//56 68//68
f 70//70 58//58 57//57 69//69
f 71//71 59//59 58//58 70//70
f 72//72 60//60 59//59 71//71
f 73//73 61//61 60//60 72//72
f 63//63 51//51 61//61 73//73
f 74//74 62//62 63//63 75//75
f 76//76 64//64 62//62 74//74
f 77//77 65//65 64//64 76//76
f 78//78 66//66 65//65 77//77
f 79//79 67//67 66//66 78//78
f 80//80 68//68 67//67 79//79
f 81//81 69//69 68//68 80//80
f 82//82 70//70 69//69 81//81
f 83//83 71//71 70//70 82//82
f 84//84 72//72 71//71 83//83
f 85//85 73//73 72//72 84//84
f 75//75 63//63 73//73 85//85
f 86//86 74//74 75//75 87//87
f 88//88 76//76 74//74 86//86
f 89//89 77//77 76//76 88//88
f 90//90 78//78 77//77 89//89
f 91//91 79//79 78//78 90//90
f 92//92 80//80 79//79 91//91
f 93//93 81//81 80//80 92//92
f 94//94 82//82 81//81 93//93
f 95//95 83//83 82//82 94//94
f 96//96 84//84 83//83 95//95
f 97//97 85//85 84//84 96//96
f 87//87 75//75 85//85 97//97
f 98//98 86//86 87//87 99//99
f 100//100 88//88 86//86 98//98
f 101//101 89//89 88//88 100//100
f 102//102 90//90 89//89 101//101
f 103//103 91//91 90//90 102//102
f 104//104 92//92 91//91 103//103
f 105//105 93//93 92//92 104//104
f 106//106 94//94 93//93 105//105
f 107//107 95//95 94//94 106//106
f 108//108 96//96 95//95 107//107
f 109//109 97//97 96//96 108//108
f 99//99 87//87 97//97 109//109
f 110//110 98//98 99//99 111//111
f 112//112 100//100 98//98 110//110
f 113//113 101//101 100//100 112//112
f 114//114 102//102 101//101 113//113
f 115//115 103//103 102//102 114//114
f 116//116 104//104 103//103 115//115
f 117//117 105//105 104//104 116//116
f 118//118 106//106 105//105 117//117
f 119//119 107//107 106//106 118//118
f 120//120 108//108 107//107 119//119
f 121//121 109//109 108//108 120//120
f 111//111 99//99 109//109 121//121
f 122//122 110//110 111//111 123//123
f 124//124 112//112 110//110 122//122
f 125//125 113//113 112//112 124//124
f 126//126 114//114 113//113 125//125
f 127//127 115//115 114//114 126//126
f 128//128 116//116 115//115 127//127
f 129//129 117//117 116//116 128//128
f 130//130 118//118 117//117 129//129
f 131//131 119//119 118//118 130//130
f 132//132 120//120 119//119 131//131
f 133//133 121//121 120//120 132//132
f 123//123 111//111 121//121 133//133
f 134//134 122//122 123//123 135//135
f 136//136 124//124 122//122 134//134
f 137//137 125//125 124//124 136//136
f 138//138 126//126 125//125 137//137
f 139//139 127//127 126//126 138//138
f 140//140 128//128 127//127 139//139
f 141//141 129//129 128//128 140//140
f 142//142 130//130 129//129 141//141
f 143//143 131//131 130//130 142//142
f 144//144 132//132 131//131 143//143
f 145//145 133//133 132//132 144//144
f 135//135 123//123 133//133 145//145
f 136//136 146//146 137//137
f 139//139 146//146 140//140
f 8//8 7//7 2//2 1//1
f 3//3 13//13 4//4 1//1
f 5//5 17//17 19//19 1//1
f 19//19 21//21 23//23 1//1
f 23//23 25//25 8//8 1//1
f 135//135 146//146 136//136 134//134
f 137//137 146//146 139//139 138//138
f 140//140 146//146 142//142 141//141
f 142//142 146//146 144//144 143//143
f 144//144 146//146 135//135 145//145
