# Blender v2.72 (sub 0) OBJ File: 'lamp_joined.blend'
# www.blender.org
mtllib neck_pin_back.mtl
o neck_pin_back_Luxo_by_RaccoonAnimator.027
v 0.607246 1.103814 0.112633
v 0.604909 1.107804 0.112079
v 0.603225 1.106117 0.112171
v 0.603225 1.101509 0.112171
v 0.604909 1.099824 0.112079
v 0.614797 1.108264 0.109545
v 0.611194 1.106117 0.111738
v 0.611810 1.103814 0.111704
v 0.615989 1.103814 0.109480
v 0.611545 1.111522 0.109722
v 0.609511 1.107804 0.111829
v 0.607101 1.112715 0.109963
v 0.607209 1.108421 0.111954
v 0.602657 1.111522 0.110205
v 0.599404 1.108264 0.110382
v 0.598214 1.103814 0.110446
v 0.602608 1.103814 0.112204
v 0.599404 1.099362 0.110382
v 0.602657 1.096105 0.110205
v 0.607101 1.094913 0.109963
v 0.607209 1.099206 0.111954
v 0.611545 1.096105 0.109722
v 0.609511 1.099824 0.111829
v 0.614797 1.099362 0.109545
v 0.611194 1.101509 0.111738
v 0.617814 1.110107 0.106203
v 0.619499 1.103814 0.106112
v 0.613213 1.114714 0.106453
v 0.606929 1.116401 0.106795
v 0.600645 1.114714 0.107137
v 0.596045 1.110107 0.107387
v 0.594360 1.103814 0.107478
v 0.596045 1.097519 0.107387
v 0.600645 1.092912 0.107137
v 0.606929 1.091227 0.106795
v 0.613213 1.092912 0.106453
v 0.617814 1.097519 0.106203
v 0.620035 1.111522 0.101942
v 0.622098 1.103814 0.101830
v 0.614401 1.117165 0.102248
v 0.606704 1.119230 0.102666
v 0.599007 1.117165 0.103084
v 0.593373 1.111522 0.103391
v 0.591310 1.103814 0.103503
v 0.593373 1.096105 0.103391
v 0.599007 1.090463 0.103084
v 0.606704 1.088397 0.102666
v 0.614401 1.090463 0.102248
v 0.620035 1.096105 0.101942
v 0.621313 1.112411 0.097052
v 0.623613 1.103814 0.096927
v 0.615027 1.118705 0.097394
v 0.606443 1.121009 0.097860
v 0.597859 1.118705 0.098327
v 0.591575 1.112411 0.098668
v 0.589273 1.103814 0.098793
v 0.591575 1.095216 0.098668
v 0.597859 1.088922 0.098327
v 0.606443 1.086619 0.097860
v 0.615027 1.088922 0.097394
v 0.621313 1.095216 0.097052
v 0.621557 1.112715 0.091865
v 0.623938 1.103814 0.091736
v 0.615051 1.119230 0.092219
v 0.606163 1.121615 0.092702
v 0.597276 1.119230 0.093185
v 0.590768 1.112715 0.093538
v 0.588388 1.103814 0.093668
v 0.590768 1.094913 0.093538
v 0.597276 1.088397 0.093185
v 0.606163 1.086012 0.092702
v 0.615051 1.088397 0.092219
v 0.621557 1.094913 0.091865
v 0.611713 1.112715 -0.089261
v 0.614095 1.103814 -0.089391
v 0.605207 1.119230 -0.088908
v 0.596319 1.121615 -0.088425
v 0.587432 1.119230 -0.087942
v 0.580925 1.112715 -0.087588
v 0.578544 1.103814 -0.087459
v 0.580925 1.094913 -0.087588
v 0.587432 1.088397 -0.087942
v 0.596319 1.086012 -0.088425
v 0.605207 1.088397 -0.088908
v 0.611713 1.094913 -0.089261
v 0.610909 1.112411 -0.094392
v 0.613208 1.103814 -0.094517
v 0.604623 1.118705 -0.094051
v 0.596039 1.121009 -0.093584
v 0.587454 1.118705 -0.093118
v 0.581171 1.112411 -0.092776
v 0.578869 1.103814 -0.092651
v 0.581171 1.095216 -0.092776
v 0.587454 1.088922 -0.093118
v 0.596039 1.086619 -0.093584
v 0.604623 1.088922 -0.094051
v 0.610909 1.095216 -0.094392
v 0.609109 1.111522 -0.099117
v 0.611172 1.103814 -0.099229
v 0.603474 1.117165 -0.098810
v 0.595777 1.119230 -0.098392
v 0.588081 1.117165 -0.097974
v 0.582446 1.111522 -0.097668
v 0.580383 1.103814 -0.097556
v 0.582446 1.096105 -0.097668
v 0.588081 1.090463 -0.097974
v 0.595777 1.088397 -0.098392
v 0.603474 1.090463 -0.098810
v 0.609109 1.096105 -0.099117
v 0.606439 1.110107 -0.103113
v 0.608123 1.103814 -0.103204
v 0.601838 1.114714 -0.102863
v 0.595553 1.116401 -0.102521
v 0.589269 1.114714 -0.102180
v 0.584669 1.110107 -0.101930
v 0.582984 1.103814 -0.101838
v 0.584669 1.097519 -0.101930
v 0.589269 1.092912 -0.102180
v 0.595553 1.091227 -0.102521
v 0.601838 1.092912 -0.102863
v 0.606439 1.097519 -0.103113
v 0.603077 1.108264 -0.106106
v 0.604269 1.103814 -0.106170
v 0.599825 1.111522 -0.105929
v 0.595381 1.112715 -0.105687
v 0.590937 1.111522 -0.105446
v 0.587684 1.108264 -0.105269
v 0.586494 1.103814 -0.105204
v 0.587684 1.099362 -0.105269
v 0.590937 1.096105 -0.105446
v 0.595381 1.094913 -0.105687
v 0.599825 1.096105 -0.105929
v 0.603077 1.099362 -0.106106
v 0.599258 1.106117 -0.107897
v 0.599874 1.103814 -0.107931
v 0.597574 1.107804 -0.107806
v 0.595273 1.108421 -0.107680
v 0.592973 1.107804 -0.107555
v 0.591288 1.106117 -0.107464
v 0.590671 1.103814 -0.107430
v 0.591288 1.101509 -0.107464
v 0.592973 1.099824 -0.107555
v 0.595273 1.099206 -0.107680
v 0.597574 1.099824 -0.107806
v 0.599258 1.101509 -0.107897
v 0.595236 1.103814 -0.108358
vn 0.054200 0.000000 0.998500
vn -0.094000 0.267200 0.959000
vn -0.215200 0.145900 0.965600
vn -0.215100 -0.146000 0.965600
vn -0.093900 -0.267200 0.959000
vn 0.527200 0.278800 0.802600
vn 0.318300 0.154100 0.935400
vn 0.351900 0.000000 0.936000
vn 0.601800 0.000000 0.798600
vn 0.323500 0.483000 0.813700
vn 0.201900 0.260300 0.944200
vn 0.045000 0.557700 0.828800
vn 0.051600 0.308300 0.949900
vn -0.233400 0.483000 0.843900
vn -0.437200 0.278800 0.855000
vn -0.511800 0.000000 0.859100
vn -0.256300 0.000000 0.966600
vn -0.437200 -0.278800 0.855000
vn -0.233300 -0.483000 0.844000
vn 0.045000 -0.557700 0.828800
vn 0.051600 -0.308300 0.949900
vn 0.323400 -0.483000 0.813700
vn 0.201800 -0.260300 0.944200
vn 0.527200 -0.278800 0.802600
vn 0.318200 -0.154100 0.935400
vn 0.687900 0.377200 0.620000
vn 0.788900 0.000000 0.614500
vn 0.412200 0.653300 0.635000
vn 0.035600 0.754400 0.655400
vn -0.341000 0.653300 0.676000
vn -0.616700 0.377200 0.690900
vn -0.717600 0.000000 0.696500
vn -0.616700 -0.377200 0.690900
vn -0.341000 -0.653300 0.675900
vn 0.035600 -0.754400 0.655400
vn 0.412200 -0.653400 0.634900
vn 0.688000 -0.377200 0.620000
vn 0.796200 0.446300 0.408400
vn 0.915700 0.000000 0.401900
vn 0.470000 0.772900 0.426200
vn 0.024500 0.892500 0.450400
vn -0.421100 0.772900 0.474600
vn -0.747300 0.446200 0.492300
vn -0.866700 0.000000 0.498800
vn -0.747300 -0.446300 0.492300
vn -0.421100 -0.772900 0.474600
vn 0.024400 -0.892500 0.450400
vn 0.470000 -0.772900 0.426100
vn 0.796300 -0.446300 0.408400
vn 0.854200 0.486700 0.182900
vn 0.984400 0.000000 0.175800
vn 0.498400 0.843000 0.202200
vn 0.012400 0.973400 0.228600
vn -0.473600 0.843000 0.255000
vn -0.829300 0.486700 0.274300
vn -0.959600 0.000000 0.281400
vn -0.829300 -0.486700 0.274300
vn -0.473600 -0.843000 0.255000
vn 0.012400 -0.973400 0.228600
vn 0.498400 -0.843000 0.202200
vn 0.854200 -0.486700 0.182900
vn 0.866400 0.499200 0.010900
vn 1.000000 0.000000 0.003600
vn 0.501500 0.864600 0.030700
vn 0.003100 0.998300 0.057700
vn -0.495300 0.864600 0.084800
vn -0.860100 0.499200 0.104700
vn -0.993700 0.000000 0.112000
vn -0.860200 -0.499100 0.104700
vn -0.495300 -0.864600 0.084900
vn 0.003100 -0.998300 0.057800
vn 0.501500 -0.864600 0.030700
vn 0.866400 -0.499100 0.010800
vn 0.860100 0.499200 -0.104700
vn 0.993700 0.000000 -0.111900
vn 0.495300 0.864600 -0.084800
vn -0.003100 0.998300 -0.057700
vn -0.501500 0.864600 -0.030700
vn -0.866400 0.499200 -0.010900
vn -1.000000 0.000000 -0.003600
vn -0.866400 -0.499100 -0.010900
vn -0.501500 -0.864600 -0.030700
vn -0.003100 -0.998300 -0.057700
vn 0.495300 -0.864600 -0.084800
vn 0.860100 -0.499200 -0.104600
vn 0.829300 0.486700 -0.274300
vn 0.959600 0.000000 -0.281400
vn 0.473600 0.843000 -0.254900
vn -0.012400 0.973400 -0.228500
vn -0.498400 0.843000 -0.202100
vn -0.854200 0.486700 -0.182800
vn -0.984400 0.000000 -0.175700
vn -0.854200 -0.486800 -0.182800
vn -0.498400 -0.843000 -0.202100
vn -0.012400 -0.973400 -0.228500
vn 0.473500 -0.843000 -0.255000
vn 0.829300 -0.486700 -0.274300
vn 0.747300 0.446300 -0.492200
vn 0.866800 0.000000 -0.498700
vn 0.421100 0.772900 -0.474500
vn -0.024500 0.892500 -0.450300
vn -0.470100 0.772900 -0.426100
vn -0.796300 0.446300 -0.408300
vn -0.915700 0.000000 -0.401900
vn -0.796300 -0.446300 -0.408300
vn -0.470100 -0.772900 -0.426100
vn -0.024400 -0.892500 -0.450300
vn 0.421100 -0.773000 -0.474500
vn 0.747300 -0.446300 -0.492200
vn 0.616600 0.377100 -0.691000
vn 0.717600 0.000000 -0.696500
vn 0.341000 0.653200 -0.676000
vn -0.035600 0.754300 -0.655600
vn -0.412200 0.653200 -0.635100
vn -0.687800 0.377100 -0.620200
vn -0.788800 0.000000 -0.614700
vn -0.687900 -0.377100 -0.620100
vn -0.412200 -0.653200 -0.635100
vn -0.035600 -0.754300 -0.655500
vn 0.340900 -0.653300 -0.676000
vn 0.616600 -0.377200 -0.691000
vn 0.437100 0.278800 -0.855000
vn 0.511700 0.000000 -0.859100
vn 0.233400 0.483000 -0.844000
vn -0.045000 0.557700 -0.828800
vn -0.323500 0.483000 -0.813700
vn -0.527300 0.278800 -0.802600
vn -0.601900 0.000000 -0.798500
vn -0.527300 -0.278800 -0.802600
vn -0.323400 -0.483000 -0.813700
vn -0.045000 -0.557700 -0.828800
vn 0.233300 -0.483000 -0.844000
vn 0.437100 -0.278800 -0.855100
vn 0.215100 0.154200 -0.964300
vn 0.248500 0.000000 -0.968600
vn 0.098400 0.260400 -0.960400
vn -0.051600 0.308400 -0.949800
vn -0.197500 0.267300 -0.943100
vn -0.318600 0.146000 -0.936600
vn -0.359700 0.000000 -0.933100
vn -0.318600 -0.146000 -0.936600
vn -0.197400 -0.267300 -0.943100
vn -0.051600 -0.308500 -0.949800
vn 0.098400 -0.260400 -0.960400
vn 0.215100 -0.154200 -0.964300
vn -0.054300 0.000000 -0.998500
usemtl wire_000000000
s 1
f 1//1 2//2 3//3
f 1//1 4//4 5//5
f 6//6 7//7 8//8 9//9
f 10//10 11//11 7//7 6//6
f 12//12 13//13 11//11 10//10
f 14//14 2//2 13//13 12//12
f 15//15 3//3 2//2 14//14
f 16//16 17//17 3//3 15//15
f 18//18 4//4 17//17 16//16
f 19//19 5//5 4//4 18//18
f 20//20 21//21 5//5 19//19
f 22//22 23//23 21//21 20//20
f 24//24 25//25 23//23 22//22
f 9//9 8//8 25//25 24//24
f 26//26 6//6 9//9 27//27
f 28//28 10//10 6//6 26//26
f 29//29 12//12 10//10 28//28
f 30//30 14//14 12//12 29//29
f 31//31 15//15 14//14 30//30
f 32//32 16//16 15//15 31//31
f 33//33 18//18 16//16 32//32
f 34//34 19//19 18//18 33//33
f 35//35 20//20 19//19 34//34
f 36//36 22//22 20//20 35//35
f 37//37 24//24 22//22 36//36
f 27//27 9//9 24//24 37//37
f 38//38 26//26 27//27 39//39
f 40//40 28//28 26//26 38//38
f 41//41 29//29 28//28 40//40
f 42//42 30//30 29//29 41//41
f 43//43 31//31 30//30 42//42
f 44//44 32//32 31//31 43//43
f 45//45 33//33 32//32 44//44
f 46//46 34//34 33//33 45//45
f 47//47 35//35 34//34 46//46
f 48//48 36//36 35//35 47//47
f 49//49 37//37 36//36 48//48
f 39//39 27//27 37//37 49//49
f 50//50 38//38 39//39 51//51
f 52//52 40//40 38//38 50//50
f 53//53 41//41 40//40 52//52
f 54//54 42//42 41//41 53//53
f 55//55 43//43 42//42 54//54
f 56//56 44//44 43//43 55//55
f 57//57 45//45 44//44 56//56
f 58//58 46//46 45//45 57//57
f 59//59 47//47 46//46 58//58
f 60//60 48//48 47//47 59//59
f 61//61 49//49 48//48 60//60
f 51//51 39//39 49//49 61//61
f 62//62 50//50 51//51 63//63
f 64//64 52//52 50//50 62//62
f 65//65 53//53 52//52 64//64
f 66//66 54//54 53//53 65//65
f 67//67 55//55 54//54 66//66
f 68//68 56//56 55//55 67//67
f 69//69 57//57 56//56 68//68
f 70//70 58//58 57//57 69//69
f 71//71 59//59 58//58 70//70
f 72//72 60//60 59//59 71//71
f 73//73 61//61 60//60 72//72
f 63//63 51//51 61//61 73//73
f 74//74 62//62 63//63 75//75
f 76//76 64//64 62//62 74//74
f 77//77 65//65 64//64 76//76
f 78//78 66//66 65//65 77//77
f 79//79 67//67 66//66 78//78
f 80//80 68//68 67//67 79//79
f 81//81 69//69 68//68 80//80
f 82//82 70//70 69//69 81//81
f 83//83 71//71 70//70 82//82
f 84//84 72//72 71//71 83//83
f 85//85 73//73 72//72 84//84
f 75//75 63//63 73//73 85//85
f 86//86 74//74 75//75 87//87
f 88//88 76//76 74//74 86//86
f 89//89 77//77 76//76 88//88
f 90//90 78//78 77//77 89//89
f 91//91 79//79 78//78 90//90
f 92//92 80//80 79//79 91//91
f 93//93 81//81 80//80 92//92
f 94//94 82//82 81//81 93//93
f 95//95 83//83 82//82 94//94
f 96//96 84//84 83//83 95//95
f 97//97 85//85 84//84 96//96
f 87//87 75//75 85//85 97//97
f 98//98 86//86 87//87 99//99
f 100//100 88//88 86//86 98//98
f 101//101 89//89 88//88 100//100
f 102//102 90//90 89//89 101//101
f 103//103 91//91 90//90 102//102
f 104//104 92//92 91//91 103//103
f 105//105 93//93 92//92 104//104
f 106//106 94//94 93//93 105//105
f 107//107 95//95 94//94 106//106
f 108//108 96//96 95//95 107//107
f 109//109 97//97 96//96 108//108
f 99//99 87//87 97//97 109//109
f 110//110 98//98 99//99 111//111
f 112//112 100//100 98//98 110//110
f 113//113 101//101 100//100 112//112
f 114//114 102//102 101//101 113//113
f 115//115 103//103 102//102 114//114
f 116//116 104//104 103//103 115//115
f 117//117 105//105 104//104 116//116
f 118//118 106//106 105//105 117//117
f 119//119 107//107 106//106 118//118
f 120//120 108//108 107//107 119//119
f 121//121 109//109 108//108 120//120
f 111//111 99//99 109//109 121//121
f 122//122 110//110 111//111 123//123
f 124//124 112//112 110//110 122//122
f 125//125 113//113 112//112 124//124
f 126//126 114//114 113//113 125//125
f 127//127 115//115 114//114 126//126
f 128//128 116//116 115//115 127//127
f 129//129 117//117 116//116 128//128
f 130//130 118//118 117//117 129//129
f 131//131 119//119 118//118 130//130
f 132//132 120//120 119//119 131//131
f 133//133 121//121 120//120 132//132
f 123//123 111//111 121//121 133//133
f 134//134 122//122 123//123 135//135
f 136//136 124//124 122//122 134//134
f 137//137 125//125 124//124 136//136
f 138//138 126//126 125//125 137//137
f 139//139 127//127 126//126 138//138
f 140//140 128//128 127//127 139//139
f 141//141 129//129 128//128 140//140
f 142//142 130//130 129//129 141//141
f 143//143 131//131 130//130 142//142
f 144//144 132//132 131//131 143//143
f 145//145 133//133 132//132 144//144
f 135//135 123//123 133//133 145//145
f 138//138 146//146 139//139
f 141//141 146//146 142//142
f 8//8 7//7 11//11 1//1
f 11//11 13//13 2//2 1//1
f 3//3 17//17 4//4 1//1
f 5//5 21//21 23//23 1//1
f 23//23 25//25 8//8 1//1
f 135//135 146//146 136//136 134//134
f 136//136 146//146 138//138 137//137
f 139//139 146//146 141//141 140//140
f 142//142 146//146 144//144 143//143
f 144//144 146//146 135//135 145//145
