# Blender v2.72 (sub 0) OBJ File: 'lamp_joined.blend'
# www.blender.org
mtllib top_neck_sides.mtl
o top_neck_sides_Luxo_by_RaccoonAnimator.017
v 0.146399 1.566792 0.070458
v 0.321642 1.484725 0.060934
v 0.323217 1.484725 0.089915
v 0.147974 1.566792 0.099439
v 0.363177 1.561858 0.058677
v 0.364752 1.561858 0.087658
v 0.125139 1.686012 0.071613
v 0.126714 1.686012 0.100595
v 0.038691 1.686012 0.076312
v 0.040266 1.686012 0.105293
v 0.033022 1.308479 0.076620
v 0.034597 1.308479 0.105601
v 0.125139 1.308479 0.071613
v 0.126714 1.308479 0.100595
v 0.140099 1.566792 -0.045469
v 0.315342 1.484725 -0.054993
v 0.316917 1.484725 -0.026012
v 0.141674 1.566792 -0.016488
v 0.356877 1.561858 -0.057250
v 0.358452 1.561858 -0.028269
v 0.118839 1.686012 -0.044314
v 0.120414 1.686012 -0.015332
v 0.032390 1.686012 -0.039615
v 0.033966 1.686012 -0.010634
v 0.026722 1.308479 -0.039307
v 0.028297 1.308479 -0.010326
v 0.118839 1.308479 -0.044314
v 0.120414 1.308479 -0.015332
vn 0.116000 -0.288700 -0.950300
vn 0.223800 -0.773100 -0.593400
vn 0.286800 -0.773100 0.565700
vn 0.218300 -0.288700 0.932200
vn 0.748600 0.239900 -0.618100
vn 0.811100 0.239900 0.533300
vn 0.143300 0.732000 -0.666000
vn 0.214600 0.732000 0.646600
vn -0.603100 0.581300 -0.546200
vn -0.540400 0.581300 0.608400
vn -0.612500 -0.573400 -0.544100
vn -0.549900 -0.573400 0.607300
vn 0.518600 -0.598300 -0.610800
vn 0.581700 -0.598300 0.551000
vn 0.811200 0.239900 0.533300
usemtl wire_227153153
s 1
f 1//1 2//2 3//3 4//4
f 2//2 5//5 6//6 3//3
f 5//5 7//7 8//8 6//6
f 7//7 9//9 10//10 8//8
f 9//9 11//11 12//12 10//10
f 11//11 13//13 14//14 12//12
f 13//13 1//1 4//4 14//14
f 9//9 1//1 13//13 11//11
f 7//7 5//5 1//1 9//9
f 5//5 2//2 1//1
f 10//10 12//12 14//14 4//4
f 8//8 10//10 4//4 6//6
f 6//6 4//4 3//3
s 2
f 15//1 16//2 17//3 18//4
f 16//2 19//5 20//15 17//3
f 19//5 21//7 22//8 20//15
f 21//7 23//9 24//10 22//8
f 23//9 25//11 26//12 24//10
f 25//11 27//13 28//14 26//12
f 27//13 15//1 18//4 28//14
f 23//9 15//1 27//13 25//11
f 15//1 23//9 21//7 19//5
f 16//2 15//1 19//5
f 24//10 26//12 28//14 18//4
f 22//8 24//10 18//4 20//15
f 20//15 18//4 17//3
